<?xml version="1.0" encoding="UTF-8"?>
<svg xmlns="http://www.w3.org/2000/svg" viewBox="0 0 601 600" width="601" height="600">
  <defs>
    <linearGradient id="bodyGrad" x1="0.5" y1="0" x2="0.5" y2="1">
      <stop offset="0%" stop-color="#1494ff"/>
      <stop offset="18%" stop-color="#0b88f8"/>
      <stop offset="42%" stop-color="#066cf0"/>
      <stop offset="100%" stop-color="#0165e6"/>
    </linearGradient>
    <linearGradient id="metalGrad" x1="0.5" y1="0" x2="0.5" y2="1">
      <stop offset="0%" stop-color="#9ab6e3"/>
      <stop offset="50%" stop-color="#b3cbf9"/>
      <stop offset="100%" stop-color="#c2deff"/>
    </linearGradient>
    <filter id="brainBlur"><feGaussianBlur stdDeviation="1.5"/></filter>
  </defs>

  <!-- Background -->
  <rect width="601" height="600" fill="#f7f7f7"/>

  <g transform="rotate(44.2, 335.8, 249.1)">

    <!-- Navy body outline -->
    <rect x="195.4" y="34.5"
          width="292.0" height="443.0"
          rx="74" fill="#081634"/>

    <!-- Navy connector outline -->
    <rect x="256.5" y="445.5"
          width="182.0" height="151.0"
          rx="3" fill="#081634"/>

    <!-- Blue body interior (gradient) -->
    <rect x="216.0" y="55.0"
          width="251.0" height="398.0"
          rx="51.0" fill="url(#bodyGrad)" stroke="#06235e" stroke-width="1.5"/>

    <!-- Metal connector face -->
    <rect x="277.5" y="473.0"
          width="141.0" height="103.0"
          rx="3" fill="url(#metalGrad)"/>

    <!-- Navy contact squares -->
    <rect x="293.4" y="505.5"
          width="39.2" height="35.6" fill="#081634"/>
    <rect x="364.1" y="506.0"
          width="38.5" height="35.1" fill="#081634"/>

    <!-- Brain zone darkening overlay -->
    <ellipse cx="327" cy="244" rx="85" ry="120" fill="#010a20" opacity="0.41"/>

    <!-- Brain silhouette (traced path) -->
    <g transform="translate(0,700) scale(0.286885,-0.286885)" filter="url(#brainBlur)">
      <path d="M1247 2055 c-45 -14 -55 -123 -13 -150 31 -20 105 -12 140 16 32 25 55 24 65 -3 13 -34 -5 -49 -48 -42 -40 6 -122 -15 -128 -33 -9 -27 130 -104 174 -97 91 14 119 -111 28 -128 -66 -12 -77 -173 -14 -215 64 -42 51 -57 -18 -21 -68 36 -119 -88 -64 -158 57 -73 -34 -158 -97 -91 -25 27 -27 38 -10 83 10 29 7 42 -28 127 -46 113 -49 113 -57 2 -10 -138 -26 -140 -27 -2 0 140 -2 141 -94 102 -97 -41 -120 -122 -45 -161 53 -27 36 -104 -23 -104 -40 0 -65 40 -48 79 15 38 5 88 -21 96 -37 12 -46 51 -20 86 26 35 22 103 -10 143 -24 31 -24 41 2 67 30 30 38 126 14 162 -23 35 -16 69 17 85 16 7 33 22 38 32 34 63 203 62 187 -1 -3 -13 -1 -19 6 -16 28 9 20 105 -10 124 -131 86 -297 -48 -298 -241 -1 -56 -6 -114 -13 -129 -16 -37 -15 -76 2 -124 12 -33 12 -48 1 -90 -14 -54 -9 -97 20 -165 8 -21 15 -52 15 -70 0 -127 162 -212 274 -144 40 24 40 24 77 -1 127 -84 299 14 299 170 0 14 11 48 25 75 29 58 32 114 10 186 -14 45 -13 54 5 113 22 71 17 121 -19 192 -11 20 -23 55 -27 76 -24 136 -142 211 -267 170z" fill="#0c2c66"/>
    </g>

    <!-- Neural network connections -->
    <line x1="344.4" y1="282.9" x2="371.5" y2="341.5"
          stroke="#00f9fa" stroke-width="7.6" stroke-linecap="round"/>
    <line x1="342.8" y1="185.5" x2="339.9" y2="249.3"
          stroke="#00f9fa" stroke-width="6.9" stroke-linecap="round"/>
    <line x1="325.0" y1="284.0" x2="293.5" y2="330.5"
          stroke="#00f9fa" stroke-width="7.0" stroke-linecap="round"/>
    <line x1="359.2" y1="176.8" x2="402.3" y2="205.7"
          stroke="#00f9fa" stroke-width="6.5" stroke-linecap="round"/>
    <line x1="387.5" y1="300.2" x2="384.2" y2="340.7"
          stroke="#00f9fa" stroke-width="7.9" stroke-linecap="round"/>
    <line x1="320.8" y1="273.0" x2="282.8" y2="288.8"
          stroke="#00f9fa" stroke-width="6.4" stroke-linecap="round"/>
    <line x1="412.2" y1="234.8" x2="396.1" y2="269.8"
          stroke="#00f9fa" stroke-width="6.7" stroke-linecap="round"/>
    <line x1="324.5" y1="165.1" x2="288.5" y2="166.6"
          stroke="#00f9fa" stroke-width="6.5" stroke-linecap="round"/>
    <line x1="393.5" y1="156.0" x2="361.5" y2="162.2"
          stroke="#00f9fa" stroke-width="6.7" stroke-linecap="round"/>
    <line x1="273.7" y1="311.3" x2="277.4" y2="328.6"
          stroke="#00f9fa" stroke-width="6.3" stroke-linecap="round"/>

    <!-- Neural network nodes -->
    <circle cx="379.6" cy="361.5" r="19.5" fill="#00f9fa"/>
    <circle cx="418.2" cy="216.4" r="19.0" fill="#00f9fa"/>
    <circle cx="342.5" cy="167.4" r="19.0" fill="#00f9fa"/>
    <circle cx="337.5" cy="265.6" r="17.0" fill="#00f9fa"/>
    <circle cx="284.3" cy="345.4" r="16.5" fill="#00f9fa"/>
    <circle cx="270.0" cy="169.5" r="16.0" fill="#00f9fa"/>
    <circle cx="266.6" cy="236.1" r="15.5" fill="#00f9fa"/>
    <circle cx="390.8" cy="283.8" r="15.0" fill="#00f9fa"/>
    <circle cx="268.4" cy="296.3" r="15.5" fill="#00f9fa"/>
    <circle cx="404.6" cy="152.4" r="10.5" fill="#00f9fa"/>

  </g>
</svg>