<?xml version="1.0" encoding="UTF-8" standalone="no"?>
<svg
   viewBox="0 0 601 600"
   width="601"
   height="600"
   version="1.1"
   id="svg31"
   sodipodi:docname="logo.svg"
   inkscape:version="1.4.3 (0d15f75, 2025-12-25)"
   xmlns:inkscape="http://www.inkscape.org/namespaces/inkscape"
   xmlns:sodipodi="http://sodipodi.sourceforge.net/DTD/sodipodi-0.dtd"
   xmlns="http://www.w3.org/2000/svg"
   xmlns:svg="http://www.w3.org/2000/svg">
  <sodipodi:namedview
     id="namedview31"
     pagecolor="#ffffff"
     bordercolor="#000000"
     borderopacity="0.25"
     inkscape:showpageshadow="2"
     inkscape:pageopacity="0.0"
     inkscape:pagecheckerboard="0"
     inkscape:deskcolor="#d1d1d1"
     inkscape:zoom="1.4642263"
     inkscape:cx="300.5"
     inkscape:cy="299.81705"
     inkscape:window-width="2123"
     inkscape:window-height="1119"
     inkscape:window-x="2186"
     inkscape:window-y="93"
     inkscape:window-maximized="0"
     inkscape:current-layer="svg31" />
  <defs
     id="defs7">
    <linearGradient
       id="bodyGrad"
       x1="0.5"
       y1="0"
       x2="0.5"
       y2="1">
      <stop
         offset="0%"
         stop-color="#1494ff"
         id="stop1" />
      <stop
         offset="18%"
         stop-color="#0b88f8"
         id="stop2" />
      <stop
         offset="42%"
         stop-color="#066cf0"
         id="stop3" />
      <stop
         offset="100%"
         stop-color="#0165e6"
         id="stop4" />
    </linearGradient>
    <linearGradient
       id="metalGrad"
       x1="0.5"
       y1="0"
       x2="0.5"
       y2="1">
      <stop
         offset="0%"
         stop-color="#9ab6e3"
         id="stop5" />
      <stop
         offset="50%"
         stop-color="#b3cbf9"
         id="stop6" />
      <stop
         offset="100%"
         stop-color="#c2deff"
         id="stop7" />
    </linearGradient>
    <filter
       id="brainBlur"
       x="-0.004783506"
       y="-0.0035155967"
       width="1.009567"
       height="1.0070312">
      <feGaussianBlur
         stdDeviation="1.5"
         id="feGaussianBlur7" />
    </filter>
  </defs>
  <!-- Background -->
  <g
     transform="rotate(44.2, 335.8, 249.1)"
     id="g31">
    <!-- Navy body outline -->
    <rect
       x="195.4"
       y="34.5"
       width="292.0"
       height="443.0"
       rx="74"
       fill="#081634"
       id="rect8" />
    <!-- Navy connector outline -->
    <rect
       x="256.5"
       y="445.5"
       width="182.0"
       height="151.0"
       rx="3"
       fill="#081634"
       id="rect9" />
    <!-- Blue body interior (gradient) -->
    <rect
       x="216.0"
       y="55.0"
       width="251.0"
       height="398.0"
       rx="51.0"
       fill="url(#bodyGrad)"
       stroke="#06235e"
       stroke-width="1.5"
       id="rect10" />
    <!-- Metal connector face -->
    <rect
       x="277.5"
       y="473.0"
       width="141.0"
       height="103.0"
       rx="3"
       fill="url(#metalGrad)"
       id="rect11" />
    <!-- Navy contact squares -->
    <rect
       x="293.4"
       y="505.5"
       width="39.2"
       height="35.6"
       fill="#081634"
       id="rect12" />
    <rect
       x="364.1"
       y="506.0"
       width="38.5"
       height="35.1"
       fill="#081634"
       id="rect13" />
    <!-- Brain zone darkening overlay -->
    <ellipse
       cx="327"
       cy="244"
       rx="85"
       ry="120"
       fill="#010a20"
       opacity="0.41"
       id="ellipse13" />
    <!-- Brain silhouette (traced path) -->
    <g
       transform="translate(0,700) scale(0.286885,-0.286885)"
       filter="url(#brainBlur)"
       id="g13">
      <path
         d="M1247 2055 c-45 -14 -55 -123 -13 -150 31 -20 105 -12 140 16 32 25 55 24 65 -3 13 -34 -5 -49 -48 -42 -40 6 -122 -15 -128 -33 -9 -27 130 -104 174 -97 91 14 119 -111 28 -128 -66 -12 -77 -173 -14 -215 64 -42 51 -57 -18 -21 -68 36 -119 -88 -64 -158 57 -73 -34 -158 -97 -91 -25 27 -27 38 -10 83 10 29 7 42 -28 127 -46 113 -49 113 -57 2 -10 -138 -26 -140 -27 -2 0 140 -2 141 -94 102 -97 -41 -120 -122 -45 -161 53 -27 36 -104 -23 -104 -40 0 -65 40 -48 79 15 38 5 88 -21 96 -37 12 -46 51 -20 86 26 35 22 103 -10 143 -24 31 -24 41 2 67 30 30 38 126 14 162 -23 35 -16 69 17 85 16 7 33 22 38 32 34 63 203 62 187 -1 -3 -13 -1 -19 6 -16 28 9 20 105 -10 124 -131 86 -297 -48 -298 -241 -1 -56 -6 -114 -13 -129 -16 -37 -15 -76 2 -124 12 -33 12 -48 1 -90 -14 -54 -9 -97 20 -165 8 -21 15 -52 15 -70 0 -127 162 -212 274 -144 40 24 40 24 77 -1 127 -84 299 14 299 170 0 14 11 48 25 75 29 58 32 114 10 186 -14 45 -13 54 5 113 22 71 17 121 -19 192 -11 20 -23 55 -27 76 -24 136 -142 211 -267 170z"
         fill="#0c2c66"
         id="path13" />
    </g>
    <!-- Neural network connections -->
    <line
       x1="344.4"
       y1="282.9"
       x2="371.5"
       y2="341.5"
       stroke="#00f9fa"
       stroke-width="7.6"
       stroke-linecap="round"
       id="line13" />
    <line
       x1="342.8"
       y1="185.5"
       x2="339.9"
       y2="249.3"
       stroke="#00f9fa"
       stroke-width="6.9"
       stroke-linecap="round"
       id="line14" />
    <line
       x1="325.0"
       y1="284.0"
       x2="293.5"
       y2="330.5"
       stroke="#00f9fa"
       stroke-width="7.0"
       stroke-linecap="round"
       id="line15" />
    <line
       x1="359.2"
       y1="176.8"
       x2="402.3"
       y2="205.7"
       stroke="#00f9fa"
       stroke-width="6.5"
       stroke-linecap="round"
       id="line16" />
    <line
       x1="387.5"
       y1="300.2"
       x2="384.2"
       y2="340.7"
       stroke="#00f9fa"
       stroke-width="7.9"
       stroke-linecap="round"
       id="line17" />
    <line
       x1="320.8"
       y1="273.0"
       x2="282.8"
       y2="288.8"
       stroke="#00f9fa"
       stroke-width="6.4"
       stroke-linecap="round"
       id="line18" />
    <line
       x1="412.2"
       y1="234.8"
       x2="396.1"
       y2="269.8"
       stroke="#00f9fa"
       stroke-width="6.7"
       stroke-linecap="round"
       id="line19" />
    <line
       x1="324.5"
       y1="165.1"
       x2="288.5"
       y2="166.6"
       stroke="#00f9fa"
       stroke-width="6.5"
       stroke-linecap="round"
       id="line20" />
    <line
       x1="393.5"
       y1="156.0"
       x2="361.5"
       y2="162.2"
       stroke="#00f9fa"
       stroke-width="6.7"
       stroke-linecap="round"
       id="line21" />
    <line
       x1="273.7"
       y1="311.3"
       x2="277.4"
       y2="328.6"
       stroke="#00f9fa"
       stroke-width="6.3"
       stroke-linecap="round"
       id="line22" />
    <!-- Neural network nodes -->
    <circle
       cx="379.6"
       cy="361.5"
       r="19.5"
       fill="#00f9fa"
       id="circle22" />
    <circle
       cx="418.2"
       cy="216.4"
       r="19.0"
       fill="#00f9fa"
       id="circle23" />
    <circle
       cx="342.5"
       cy="167.4"
       r="19.0"
       fill="#00f9fa"
       id="circle24" />
    <circle
       cx="337.5"
       cy="265.6"
       r="17.0"
       fill="#00f9fa"
       id="circle25" />
    <circle
       cx="284.3"
       cy="345.4"
       r="16.5"
       fill="#00f9fa"
       id="circle26" />
    <circle
       cx="270.0"
       cy="169.5"
       r="16.0"
       fill="#00f9fa"
       id="circle27" />
    <circle
       cx="266.6"
       cy="236.1"
       r="15.5"
       fill="#00f9fa"
       id="circle28" />
    <circle
       cx="390.8"
       cy="283.8"
       r="15.0"
       fill="#00f9fa"
       id="circle29" />
    <circle
       cx="268.4"
       cy="296.3"
       r="15.5"
       fill="#00f9fa"
       id="circle30" />
    <circle
       cx="404.6"
       cy="152.4"
       r="10.5"
       fill="#00f9fa"
       id="circle31" />
  </g>
</svg>
