<?xml version="1.0" encoding="UTF-8"?>
<!-- Generator: visioncortex VTracer 0.6.5 -->
<svg version="1.1" xmlns="http://www.w3.org/2000/svg" width="601" height="600">
<path d="M0 0 C198.3 0 396.7 0 601 0 C601 198 601 396 601 600 C402.7 600 204.3 600 0 600 C0 402 0 204 0 0 Z " fill="#F7F7F7" transform="translate(0,0)"/>
<path d="M0 0 C2.8 2.5 2.8 2.5 5.2 5.4 C8.4 9.2 12.1 12.2 15.8 15.5 C20.3 19.9 24.7 24.3 29.1 28.8 C29.9 29.7 30.8 30.6 31.7 31.5 C32.1 31.9 32.1 31.9 34.1 33.9 C36.2 35.9 38.4 37.9 40.6 39.8 C45.1 43.7 49.3 47.8 53.4 52.1 C54.2 52.9 55 53.6 55.8 54.5 C59.2 57.8 62.5 61.2 65.9 64.6 C68.3 67.1 70.8 69.5 73.2 72 C74 72.7 74.7 73.5 75.5 74.3 C80.1 78.9 84.9 83.3 89.8 87.5 C108.7 105.1 127.2 124.8 129.1 152 C129.5 174.9 121 193.4 105.5 210 C103.1 212.5 100.7 214.9 98.2 217.3 C97.8 217.7 97.8 217.7 95.6 219.9 C92.8 222.7 90 225.5 87.2 228.2 C84.4 231 81.6 233.7 78.8 236.5 C77.1 238.2 75.4 239.9 73.7 241.7 C68.8 246.4 64.3 251.4 59.8 256.5 C56.9 259.6 53.9 262.6 50.9 265.6 C50.5 266 50.5 266 48.3 268.1 C44.8 271.6 41.2 275.2 37.6 278.7 C35 281.3 32.4 283.9 29.8 286.5 C29.4 286.9 29.4 286.9 27.4 288.9 C27 289.3 27 289.3 25.1 291.2 C24.4 291.8 23.8 292.5 23.1 293.1 C21.2 295.2 19.3 297.2 17.5 299.4 C14.1 303.3 10.5 307 6.8 310.6 C6.1 311.3 6.1 311.3 2.7 314.7 C2 315.5 1.3 316.2 0.5 316.9 C-1.7 319.2 -4 321.4 -6.3 323.7 C-11.9 329.3 -17.5 334.9 -23.1 340.5 C-27.9 345.2 -32.6 349.9 -37.4 354.7 C-39.6 356.9 -41.8 359.1 -44 361.3 C-44.7 362 -44.7 362 -48.1 365.4 C-49.3 366.6 -50.5 367.8 -51.7 369 C-55.4 372.7 -58.8 376.6 -62.2 380.5 C-63.8 382.2 -65.4 383.9 -67 385.5 C-67.9 386.4 -68.8 387.3 -69.7 388.3 C-70.2 388.7 -70.2 388.7 -72.6 391.1 C-73.5 392.1 -74.5 393.1 -75.5 394.1 C-77.6 396.2 -79.7 398.3 -81.8 400.4 C-85 403.6 -88.1 406.8 -91.3 410 C-93.3 412 -95.3 414 -97.4 416.1 C-98.3 417 -99.2 418 -100.2 418.9 C-114.6 433.3 -130.3 441.2 -150.7 442.9 C-158.5 442.2 -166.5 441.1 -173.8 437.9 C-177.2 436.5 -177.2 436.5 -182.2 436.5 C-184.7 438.4 -184.7 438.4 -187.3 441.1 C-188.3 442.1 -189.3 443.1 -190.3 444.1 C-190.9 444.6 -190.9 444.6 -193.6 447.4 C-194.1 448 -194.1 448 -196.9 450.8 C-200.5 454.3 -204 457.9 -207.5 461.5 C-209.9 463.9 -212.3 466.3 -214.7 468.7 C-232.9 487.1 -232.9 487.1 -240.2 495.5 C-242.6 498.1 -245.1 500.6 -247.7 503.2 C-248.3 503.8 -248.3 503.8 -251.4 506.9 C-254.9 510.3 -258.5 513.4 -262.2 516.5 C-263 517.5 -263.9 518.5 -264.7 519.5 C-267.2 521.5 -267.2 521.5 -269.9 521.6 C-274.6 520.1 -277 517.2 -280.5 513.7 C-281.2 513 -281.2 513 -284.7 509.4 C-286.1 507.9 -287.6 506.4 -289 504.9 C-291.2 502.7 -293.4 500.5 -295.5 498.3 C-297.5 496.3 -299.4 494.3 -301.4 492.2 C-303.8 489.9 -306.3 487.5 -308.9 485.3 C-314.7 480.2 -320 474.8 -325.5 469.3 C-326.6 468.1 -327.8 466.9 -329 465.7 C-334 460.7 -339 455.7 -343.9 450.7 C-347.6 447.1 -351.2 443.4 -354.8 439.8 C-355.4 439.2 -355.4 439.2 -358.2 436.4 C-363.7 430.9 -369.3 425.6 -375.2 420.5 C-376.9 418.9 -378.6 417.2 -380.2 415.6 C-381.1 414.7 -382 413.8 -382.9 412.9 C-383.3 412.5 -383.3 412.5 -385.5 410.3 C-386.4 409.4 -387.3 408.5 -388.3 407.6 C-388.7 407.1 -388.7 407.1 -390.9 404.9 C-391.6 404.2 -392.4 403.4 -393.2 402.6 C-395.2 400.5 -395.2 400.5 -397.2 397.5 C-395.8 392.3 -392.8 389.4 -389.2 385.5 C-388.3 384.6 -387.5 383.7 -386.6 382.8 C-378.8 374.2 -370.7 366 -362.4 357.9 C-359.6 355.1 -356.9 352.4 -354.1 349.6 C-349.7 345.3 -345.4 341 -341 336.7 C-336.7 332.5 -332.5 328.3 -328.3 324.1 C-327 322.8 -325.7 321.5 -324.3 320.2 C-323.1 319 -321.9 317.8 -320.7 316.6 C-320.1 316.1 -320.1 316.1 -317.4 313.4 C-315.2 310.5 -315.2 310.5 -315.2 305.5 C-316.9 303 -318.6 300.5 -320.3 298.1 C-329.9 284.6 -331.6 267.8 -329.1 252 C-324.2 227.8 -308.3 213.4 -291.5 196.8 C-288.9 194.2 -286.2 191.6 -283.6 189 C-282 187.3 -280.3 185.7 -278.7 184.1 C-273.9 179.4 -269.5 174.5 -265.2 169.5 C-262.2 166.5 -259.2 163.5 -256.2 160.5 C-255.8 160.1 -255.8 160.1 -253.6 158 C-250.1 154.4 -246.5 150.9 -243 147.4 C-240.4 144.8 -237.7 142.2 -235.1 139.6 C-234.3 138.8 -233.5 138 -232.7 137.2 C-228 132.5 -223.6 127.6 -219.2 122.5 C-216.6 119.9 -213.9 117.2 -211.3 114.6 C-210.6 113.9 -209.8 113.1 -209.1 112.4 C-206 109.3 -202.9 106.3 -199.8 103.2 C-197.6 101 -195.3 98.7 -193 96.5 C-192.4 95.8 -192.4 95.8 -189 92.4 C-186.6 90 -184.3 87.5 -182.1 84.9 C-176.3 78.4 -170 72.3 -163.8 66.1 C-161.7 64 -159.6 61.9 -157.5 59.8 C-153.8 56.2 -150.2 52.5 -146.5 48.8 C-142.1 44.5 -137.7 40.1 -133.3 35.7 C-130.5 32.9 -127.8 30.2 -125 27.5 C-123.8 26.3 -122.6 25 -121.3 23.8 C-120.2 22.7 -119.1 21.6 -118 20.5 C-115.5 17.9 -113.4 15.3 -111.2 12.5 C-108.5 10.2 -105.9 7.8 -103.2 5.5 C-102.4 4.8 -101.7 4.1 -100.9 3.4 C-71.3 -24.6 -31.5 -24.5 0 0 Z " fill="#0065E7" transform="translate(436.16015625,46.47265625)"/>
<path d="M0 0 C2.8 2.5 2.8 2.5 5.2 5.4 C8.4 9.2 12.1 12.2 15.8 15.5 C20.3 19.9 24.7 24.3 29.1 28.8 C29.9 29.7 30.8 30.6 31.7 31.5 C32.1 31.9 32.1 31.9 34.1 33.9 C36.2 35.9 38.4 37.9 40.6 39.8 C45.1 43.7 49.3 47.8 53.4 52.1 C54.2 52.9 55 53.6 55.8 54.5 C59.2 57.8 62.5 61.2 65.9 64.6 C68.3 67.1 70.8 69.5 73.2 72 C74 72.7 74.7 73.5 75.5 74.3 C80.1 78.9 84.9 83.3 89.8 87.5 C108.7 105.1 127.2 124.8 129.1 152 C129.5 174.9 121 193.4 105.5 210 C103.1 212.5 100.7 214.9 98.2 217.3 C97.8 217.7 97.8 217.7 95.6 219.9 C92.8 222.7 90 225.5 87.2 228.2 C84.4 231 81.6 233.7 78.8 236.5 C77.1 238.2 75.4 239.9 73.7 241.7 C68.8 246.4 64.3 251.4 59.8 256.5 C56.9 259.6 53.9 262.6 50.9 265.6 C50.5 266 50.5 266 48.3 268.1 C44.8 271.6 41.2 275.2 37.6 278.7 C35 281.3 32.4 283.9 29.8 286.5 C29.4 286.9 29.4 286.9 27.4 288.9 C27 289.3 27 289.3 25.1 291.2 C24.4 291.8 23.8 292.5 23.1 293.1 C21.2 295.2 19.3 297.2 17.5 299.4 C14.1 303.3 10.5 307 6.8 310.6 C6.1 311.3 6.1 311.3 2.7 314.7 C2 315.5 1.3 316.2 0.5 316.9 C-1.7 319.2 -4 321.4 -6.3 323.7 C-11.9 329.3 -17.5 334.9 -23.1 340.5 C-27.9 345.2 -32.6 349.9 -37.4 354.7 C-39.6 356.9 -41.8 359.1 -44 361.3 C-44.7 362 -44.7 362 -48.1 365.4 C-49.3 366.6 -50.5 367.8 -51.7 369 C-55.4 372.7 -58.8 376.6 -62.2 380.5 C-63.8 382.2 -65.4 383.9 -67 385.5 C-67.9 386.4 -68.8 387.3 -69.7 388.3 C-70.2 388.7 -70.2 388.7 -72.6 391.1 C-73.5 392.1 -74.5 393.1 -75.5 394.1 C-77.6 396.2 -79.7 398.3 -81.8 400.4 C-85 403.6 -88.1 406.8 -91.3 410 C-93.3 412 -95.3 414 -97.4 416.1 C-98.3 417 -99.2 418 -100.2 418.9 C-114.6 433.3 -130.3 441.2 -150.7 442.9 C-158.5 442.2 -166.5 441.1 -173.8 437.9 C-177.2 436.5 -177.2 436.5 -182.2 436.5 C-184.7 438.4 -184.7 438.4 -187.3 441.1 C-188.3 442.1 -189.3 443.1 -190.3 444.1 C-190.9 444.6 -190.9 444.6 -193.6 447.4 C-194.1 448 -194.1 448 -196.9 450.8 C-200.5 454.3 -204 457.9 -207.5 461.5 C-209.9 463.9 -212.3 466.3 -214.7 468.7 C-232.9 487.1 -232.9 487.1 -240.2 495.5 C-242.6 498.1 -245.1 500.6 -247.7 503.2 C-248.3 503.8 -248.3 503.8 -251.4 506.9 C-254.9 510.3 -258.5 513.4 -262.2 516.5 C-263 517.5 -263.9 518.5 -264.7 519.5 C-267.2 521.5 -267.2 521.5 -269.9 521.6 C-274.6 520.1 -277 517.2 -280.5 513.7 C-281.2 513 -281.2 513 -284.7 509.4 C-286.1 507.9 -287.6 506.4 -289 504.9 C-291.2 502.7 -293.4 500.5 -295.5 498.3 C-297.5 496.3 -299.4 494.3 -301.4 492.2 C-303.8 489.9 -306.3 487.5 -308.9 485.3 C-314.7 480.2 -320 474.8 -325.5 469.3 C-326.6 468.1 -327.8 466.9 -329 465.7 C-334 460.7 -339 455.7 -343.9 450.7 C-347.6 447.1 -351.2 443.4 -354.8 439.8 C-355.4 439.2 -355.4 439.2 -358.2 436.4 C-363.7 430.9 -369.3 425.6 -375.2 420.5 C-376.9 418.9 -378.6 417.2 -380.2 415.6 C-381.1 414.7 -382 413.8 -382.9 412.9 C-383.3 412.5 -383.3 412.5 -385.5 410.3 C-386.4 409.4 -387.3 408.5 -388.3 407.6 C-388.7 407.1 -388.7 407.1 -390.9 404.9 C-391.6 404.2 -392.4 403.4 -393.2 402.6 C-395.2 400.5 -395.2 400.5 -397.2 397.5 C-395.8 392.3 -392.8 389.4 -389.2 385.5 C-388.3 384.6 -387.5 383.7 -386.6 382.8 C-378.8 374.2 -370.7 366 -362.4 357.9 C-359.6 355.1 -356.9 352.4 -354.1 349.6 C-349.7 345.3 -345.4 341 -341 336.7 C-336.7 332.5 -332.5 328.3 -328.3 324.1 C-327 322.8 -325.7 321.5 -324.3 320.2 C-323.1 319 -321.9 317.8 -320.7 316.6 C-320.1 316.1 -320.1 316.1 -317.4 313.4 C-315.2 310.5 -315.2 310.5 -315.2 305.5 C-316.9 303 -318.6 300.5 -320.3 298.1 C-329.9 284.6 -331.6 267.8 -329.1 252 C-324.2 227.8 -308.3 213.4 -291.5 196.8 C-288.9 194.2 -286.2 191.6 -283.6 189 C-282 187.3 -280.3 185.7 -278.7 184.1 C-273.9 179.4 -269.5 174.5 -265.2 169.5 C-262.2 166.5 -259.2 163.5 -256.2 160.5 C-255.8 160.1 -255.8 160.1 -253.6 158 C-250.1 154.4 -246.5 150.9 -243 147.4 C-240.4 144.8 -237.7 142.2 -235.1 139.6 C-234.3 138.8 -233.5 138 -232.7 137.2 C-228 132.5 -223.6 127.6 -219.2 122.5 C-216.6 119.9 -213.9 117.2 -211.3 114.6 C-210.6 113.9 -209.8 113.1 -209.1 112.4 C-206 109.3 -202.9 106.3 -199.8 103.2 C-197.6 101 -195.3 98.7 -193 96.5 C-192.4 95.8 -192.4 95.8 -189 92.4 C-186.6 90 -184.3 87.5 -182.1 84.9 C-176.3 78.4 -170 72.3 -163.8 66.1 C-161.7 64 -159.6 61.9 -157.5 59.8 C-153.8 56.2 -150.2 52.5 -146.5 48.8 C-142.1 44.5 -137.7 40.1 -133.3 35.7 C-130.5 32.9 -127.8 30.2 -125 27.5 C-123.8 26.3 -122.6 25 -121.3 23.8 C-120.2 22.7 -119.1 21.6 -118 20.5 C-115.5 17.9 -113.4 15.3 -111.2 12.5 C-108.5 10.2 -105.9 7.8 -103.2 5.5 C-102.4 4.8 -101.7 4.1 -100.9 3.4 C-71.3 -24.6 -31.5 -24.5 0 0 Z M-87.2 17.5 C-89.5 20.2 -91.9 22.8 -94.2 25.5 C-96.5 27.5 -98.8 29.5 -101.2 31.5 C-104.2 35.5 -104.2 35.5 -104.2 37.5 C-105.5 38.2 -106.8 38.8 -108.2 39.5 C-109.7 40.9 -111.2 42.3 -112.6 43.8 C-113.5 44.6 -114.4 45.5 -115.3 46.4 C-116.2 47.4 -117.2 48.3 -118.1 49.3 C-119.1 50.3 -120.1 51.2 -121.1 52.2 C-123.2 54.3 -125.2 56.4 -127.3 58.5 C-130.4 61.6 -133.6 64.8 -136.7 67.9 C-138.8 69.9 -140.8 72 -142.8 74 C-143.7 74.9 -144.6 75.8 -145.6 76.8 C-150.7 81.9 -155.4 87.1 -160.2 92.5 C-163.2 95.7 -166.4 98.9 -169.6 102 C-170.4 102.9 -171.3 103.8 -172.2 104.7 C-176 108.4 -179.7 112.1 -183.5 115.8 C-186.3 118.6 -189 121.3 -191.8 124.1 C-192.6 124.9 -193.4 125.7 -194.3 126.6 C-199.1 131.4 -203.7 136.4 -208.2 141.5 C-210.6 144 -213.1 146.5 -215.6 149 C-217 150.4 -218.4 151.8 -219.8 153.2 C-222 155.4 -224.2 157.5 -226.3 159.7 C-228.5 161.8 -230.6 163.9 -232.7 166 C-234 167.3 -235.2 168.5 -236.5 169.8 C-239 172.3 -241.3 174.9 -243.6 177.5 C-247.2 181.6 -251 185.4 -254.8 189.2 C-255.2 189.6 -255.2 189.6 -257 191.4 C-259.9 194.3 -262.9 197.3 -265.9 200.3 C-268.1 202.4 -270.3 204.6 -272.5 206.8 C-273.8 208.1 -275.1 209.4 -276.4 210.7 C-280.2 214.5 -283.7 218.5 -287.2 222.5 C-289.3 224.6 -291.5 226.6 -293.7 228.7 C-303.5 238.3 -308.2 248.7 -308.5 262.4 C-308.4 280.7 -300.7 291.2 -288.1 303.8 C-287.7 304.2 -287.7 304.2 -285.8 306.1 C-284.3 307.6 -282.7 309.2 -281.1 310.8 C-278.7 313.1 -276.3 315.5 -274 317.9 C-262.3 329.5 -262.3 329.5 -257.3 333.9 C-252.5 338.1 -248 342.6 -243.5 347.2 C-242.6 348.1 -241.7 349 -240.7 349.9 C-236.9 353.7 -233.1 357.6 -229.3 361.4 C-226.5 364.3 -223.7 367.1 -220.8 369.9 C-220.4 370.3 -220.4 370.3 -218.3 372.5 C-213.4 377.4 -208.4 382 -203.2 386.5 C-201.2 388.5 -199.2 390.5 -197.3 392.5 C-196.7 393 -196.7 393 -194.1 395.7 C-191.9 398 -189.7 400.2 -187.5 402.5 C-178.5 411.6 -169.1 419.7 -155.8 420.9 C-138.5 420.8 -128 416.8 -115.6 404.4 C-114.9 403.7 -114.3 403 -113.5 402.3 C-111.3 400 -109 397.7 -106.8 395.5 C-105.2 393.9 -103.6 392.3 -102 390.7 C-98.7 387.4 -95.4 384.1 -92.1 380.8 C-87.9 376.5 -83.7 372.3 -79.4 368 C-75.4 364 -71.3 359.9 -67.3 355.8 C-66.5 355.1 -65.7 354.3 -65 353.5 C-62.8 351.3 -60.6 349.1 -58.4 346.9 C-57.2 345.7 -55.9 344.5 -54.7 343.2 C-51 339.4 -47.6 335.5 -44.2 331.5 C-42.6 329.9 -41 328.3 -39.4 326.7 C-38.6 325.8 -37.7 325 -36.8 324.1 C-35.9 323.2 -35 322.3 -34.1 321.4 C-32.1 319.5 -30.2 317.6 -28.3 315.6 C-25.2 312.6 -22.2 309.6 -19.1 306.6 C-16.2 303.7 -13.3 300.8 -10.3 297.8 C-9.4 296.9 -8.5 296 -7.5 295.1 C-5.4 292.9 -3.3 290.7 -1.2 288.5 C-1.2 287.9 -1.2 287.2 -1.2 286.5 C0.2 285.9 1.5 285.2 2.8 284.5 C5 282.4 7 280.2 9 278 C17 269.3 25.4 260.9 33.8 252.6 C36.7 249.7 39.5 246.9 42.4 244 C43.7 242.8 44.9 241.5 46.2 240.2 C48.6 237.8 51 235.2 53.2 232.6 C57.3 228.1 61.5 223.8 65.8 219.6 C67.6 217.9 69.3 216.2 71 214.4 C73.7 211.8 76.4 209.1 79.1 206.5 C81.7 203.9 84.4 201.3 87 198.8 C87.8 198 88.6 197.2 89.4 196.4 C100.4 185.5 106.9 172.2 107.2 156.5 C107 131.9 90.5 118 74.2 101.7 C73.1 100.6 72 99.6 70.9 98.4 C69.8 97.4 68.8 96.3 67.7 95.3 C66.8 94.3 65.8 93.4 64.9 92.4 C62.6 90.3 60.3 88.2 58 86.2 C53.7 82.4 49.6 78.4 45.6 74.4 C44.8 73.6 44.1 72.9 43.3 72.1 C41.7 70.5 40.1 69 38.6 67.4 C36.2 65 33.7 62.6 31.3 60.2 C29.8 58.6 28.2 57.1 26.7 55.5 C26 54.8 26 54.8 22.5 51.3 C19.4 48.1 16.6 44.9 13.8 41.5 C12.5 40.4 11.2 39.3 9.9 38.1 C5.8 34.5 5.8 34.5 2.8 30.9 C-0.2 27.5 -0.2 27.5 -3.6 25.1 C-7.2 22.5 -7.2 22.5 -10.3 18.7 C-19.3 8.9 -29.6 3.9 -42.8 2.7 C-60 2 -73.9 6.1 -87.2 17.5 Z " fill="#0C1A2E" transform="translate(436.16015625,46.47265625)"/>
<path d="M0 0 C2.5 2.2 4.8 4.4 7.1 6.8 C8.2 7.9 9.3 9.1 10.5 10.2 C15.5 17 18 24.3 18.1 32.8 C16.4 39.1 13.1 41.8 8.1 45.8 C6.8 47.4 5.4 49.1 4.1 50.8 C1.7 53.2 1.7 53.2 -0.9 54.8 C-5.9 53.8 -5.9 53.8 -8.9 52.8 C-8.6 51.5 -8.2 50.1 -7.9 48.8 C-5.6 48.1 -3.3 47.5 -0.9 46.8 C-0.6 45.1 -0.2 43.5 0.1 41.8 C-0.9 40.5 -1.9 39.1 -2.9 37.8 C-3.7 35.7 -4.5 33.6 -5.3 31.4 C-8.9 21.8 -14.2 16.8 -23.3 12 C-30.1 10.2 -36.9 10 -43.9 10.8 C-44.6 11.3 -44.6 11.3 -47.9 13.8 C-52.9 11.8 -52.9 11.8 -56.1 10.1 C-60.9 8.4 -64 8.7 -68.9 9.8 C-73 12.6 -74.7 14.3 -76.9 18.8 C-76.8 19.6 -76.8 19.6 -76.5 24 C-77.1 34.2 -87.7 41.4 -94.9 47.8 C-96.3 49.1 -97.6 50.4 -99 51.8 C-103.2 55 -104.5 55.6 -109.5 55 C-114.5 54.8 -117.7 54.7 -121.9 57.8 C-125.7 62.9 -125.9 64.9 -125.5 71 C-125.5 76.2 -125.7 77.5 -128.8 82 C-130.2 83.2 -131.5 84.5 -132.9 85.8 C-134.5 87.5 -136.1 89.3 -137.6 91.1 C-144.5 98.7 -144.5 98.7 -147.8 99.2 C-148.9 99.2 -150.1 99.2 -151.2 99.2 C-156.5 99.5 -160 99.9 -163.9 103.8 C-166.6 108.5 -167.5 112.4 -166.9 117.8 C-166.6 118.3 -166.6 118.3 -165.3 120.9 C-163.6 124.5 -164 125.9 -164.9 129.8 C-166.2 132.7 -166.2 132.7 -167.7 135.5 C-168.2 136.4 -168.7 137.3 -169.2 138.3 C-172 142.4 -174.7 143.7 -179.3 145.2 C-185 147.2 -187.6 149.2 -190.3 154.6 C-191.3 160 -190.7 164.1 -188.3 169 C-185.1 172.6 -182.4 174.1 -177.9 175.8 C-172.2 175.9 -169.6 175.3 -165 172 C-161.1 168 -160 165 -159.5 159.4 C-159.9 154.4 -161.4 152.1 -163.9 147.8 C-163.6 143.3 -162.2 140 -160 136 C-159.5 135.1 -159 134.2 -158.5 133.2 C-156.1 129.6 -154.2 128.9 -150.1 127.9 C-145.9 126.8 -145.9 126.8 -142.7 124.6 C-139.9 122.8 -139.9 122.8 -134.9 123.8 C-129.3 125.6 -123.8 127.6 -118.3 129.6 C-116.8 130.1 -115.3 130.7 -113.7 131.2 C-112.3 131.7 -110.8 132.3 -109.3 132.8 C-108 133.3 -106.7 133.8 -105.3 134.2 C-101.9 135.8 -101.9 135.8 -97.9 139.8 C-97.2 144.1 -97.2 144.1 -97.9 148.8 C-100.9 152.4 -100.9 152.4 -104.9 155.8 C-106.1 156.8 -107.2 157.8 -108.4 158.9 C-109.1 159.5 -109.1 159.5 -112.9 162.8 C-115.4 165.1 -117.9 167.5 -120.4 169.8 C-125.5 174.6 -130.6 179.2 -135.9 183.8 C-139.1 187 -140.2 189.6 -141.9 193.8 C-134.1 192 -130.2 189.7 -124.9 183.8 C-123.6 182.7 -122.3 181.5 -121 180.4 C-118.2 177.9 -115.5 175.4 -112.9 172.8 C-107.2 167.1 -101.1 161.9 -94.9 156.8 C-94.2 157.1 -93.6 157.4 -92.9 157.8 C-93.5 163.7 -95.2 168.8 -97.3 174.3 C-97.7 175.2 -97.7 175.2 -99.4 179.8 C-99.8 180.8 -100.2 181.7 -100.5 182.7 C-101.6 185.6 -102.7 188.5 -103.8 191.3 C-113.1 215.6 -113.1 215.6 -117.9 218.8 C-118.6 218.9 -118.6 218.9 -122.2 219.7 C-128.6 221.2 -131.6 222.9 -135.3 228.4 C-137.2 233.7 -137.5 237.2 -136.9 242.8 C-134.1 248.4 -131 252.1 -125.9 255.8 C-120.1 257.7 -115.2 257.3 -109.6 255.1 C-104.5 251.9 -102.5 249.1 -99.9 243.8 C-99.8 241.4 -99.8 238.9 -99.8 236.5 C-99.4 230.8 -99.4 229.3 -95.5 224.9 C-94 223.8 -92.4 222.8 -90.9 221.8 C-89.3 220.5 -87.8 219.3 -86.2 218 C-85.8 217.6 -85.8 217.6 -83.7 216 C-81.6 214.4 -79.7 212.7 -77.7 211 C-69.1 203.9 -69.1 203.9 -62.8 203.5 C-58.9 204.8 -58.9 204.8 -55.9 207.8 C-54.9 211.6 -54.1 215.4 -53.3 219.3 C-51.1 230.4 -51.1 230.4 -48.9 233.8 C-47.6 233.5 -46.3 233.1 -44.9 232.8 C-44.6 225.5 -46.4 218.9 -48.1 211.9 C-49.2 206.1 -48.2 204.3 -45 199.4 C-41.9 194.8 -41.9 194.8 -40.8 191.5 C-39.3 187.1 -35.9 185.3 -31.8 183.2 C-28.2 181.6 -24.6 180 -20.9 178.4 C-19.6 177.8 -18.4 177.3 -17 176.7 C-15.8 176.2 -14.6 175.6 -13.3 175.1 C-12.2 174.6 -11.1 174.1 -10 173.6 C-5.2 172.3 -2.3 174.6 1.9 176.9 C7.9 179.6 12.5 179.6 18.9 177.7 C23.6 174.9 26.2 171.8 28.4 166.9 C30 159.6 29.1 155.1 25.1 148.8 C21.5 145.7 18.6 144 14.1 142.5 C7.9 138.2 7.7 132.6 6.3 125.4 C6.2 124.8 6.2 124.8 5.5 121.5 C4.9 118.9 4.4 116.3 3.9 113.7 C2.9 108.7 1.8 103.7 0.6 98.8 C0.1 95.8 0.1 95.8 0.1 90.8 C1.1 89.8 2.1 88.8 3.1 87.8 C10.2 87.8 13.9 90.3 19.7 94 C20.6 94.6 21.5 95.2 22.5 95.8 C30.7 101 34.8 104.1 39.1 112.8 C43.1 115.8 43.1 115.8 46.6 115.9 C50.1 114.8 50.1 114.8 52.5 111.7 C54.3 107.4 54.6 104.4 54.1 99.8 C53.1 98.8 52.1 97.8 51.1 96.8 C49.3 96.8 47.4 96.9 45.5 96.9 C39 97 34.6 95.2 29.1 91.8 C27.7 90.9 26.3 90 24.8 89.1 C12.6 81.5 12.6 81.5 9.1 76.8 C8.7 73.1 8.4 69.5 8.1 65.8 C7.8 64.5 7.4 63.1 7.1 61.8 C9.4 58.8 9.4 58.8 12.7 55.5 C16.1 51.9 19.4 48.4 22.6 44.6 C25.7 41.1 28 39.9 32.7 39.4 C45.4 40.5 55 48.6 63.1 57.8 C74.3 73.3 76.6 87.8 75.1 106.8 C72.8 118.4 66.2 128.1 58.4 136.8 C56 140 55.3 141.9 54.6 145.8 C50.9 163.8 42.8 180.9 27.1 191.4 C21 195.1 14.4 197.9 7.8 200.8 C1.3 204.3 -0.5 208.7 -3.1 215.4 C-6.3 222.7 -9.9 228.6 -14.9 234.8 C-15.3 235.3 -15.3 235.3 -17.1 237.9 C-26.7 247.9 -37.6 253.8 -51 256.5 C-58.2 258.2 -61.4 260.5 -65.8 266.3 C-73.9 276.2 -87.6 281.1 -99.9 282.8 C-116.5 283.9 -131.6 279.2 -144.2 268.5 C-156.5 256.8 -160.5 243.3 -161.9 226.8 C-162.4 226.7 -162.4 226.7 -165 226.5 C-182.3 224.8 -194.1 219 -205.9 205.8 C-214.9 192.4 -217.7 177.8 -214.8 161.9 C-212.3 151.4 -208.3 144 -200.8 136.2 C-195.2 130.5 -193 126.4 -190.9 118.8 C-184.5 100.2 -176.4 89.7 -158.9 80.8 C-157.8 80.3 -156.8 79.8 -155.7 79.3 C-150.3 76.4 -148.8 71.4 -146.6 66 C-140.1 51.1 -130.8 41.9 -115.9 35.8 C-106.2 31.8 -100.9 24.3 -94.5 16.4 C-71.3 -12 -31.6 -24.1 0 0 Z " fill="#13325A" transform="translate(406.8984375,122.2109375)"/>
<path d="M0 0 C1.1 0.6 2.1 1.2 3.2 1.8 C4.6 1.2 5.9 0.5 7.2 -0.2 C13.8 -3.5 24 -1.5 30.7 0.3 C41.8 6.4 46.8 14.3 51.1 25.9 C52.2 28.8 52.2 28.8 54.2 30.8 C53.2 35.8 53.2 35.8 51.2 37.8 C49.3 38.2 47.3 38.6 45.2 38.8 C44.9 39.8 44.6 40.8 44.2 41.8 C45.6 42.1 46.9 42.5 48.2 42.8 C53.9 44.8 57.3 47.3 61.2 51.8 C62.2 54.8 62.2 54.8 62.5 60.2 C63.3 66.5 63.6 67 68.2 70.8 C71.7 73.1 75.1 75.4 78.7 77.6 C79.6 78.2 80.5 78.7 81.5 79.3 C88.1 83.4 92.2 84.9 99.9 84.6 C104.2 84.8 104.2 84.8 108.2 88.8 C109 93.9 108.4 96.5 106.2 101.2 C103.2 104.8 103.2 104.8 99.8 106.1 C95 105.7 93.5 104.3 90.2 100.8 C89.7 99.6 89.2 98.3 88.7 97.1 C85.4 91.4 81.3 89.1 75.7 85.9 C74.7 85.4 73.8 84.8 72.8 84.2 C70.3 82.7 67.8 81.3 65.2 79.8 C64.3 79.2 63.3 78.5 62.2 77.8 C60.3 77.8 58.3 77.8 56.2 77.8 C55.6 78.5 54.9 79.1 54.2 79.8 C54.6 85.9 55.8 91.7 57.1 97.7 C57.2 98.5 57.2 98.5 58.1 102.6 C58.5 104.3 58.9 106 59.2 107.7 C59.6 109.4 60 111.1 60.4 112.8 C63.1 125.4 63.1 125.4 64.2 128.8 C66.8 130.2 66.8 130.2 70 131.6 C77.2 135.1 80.3 138.3 83.2 145.8 C83.8 151.5 82.8 155.7 80.2 160.8 C74.8 166.2 71.7 168.6 64 169.1 C58.7 168.8 55.8 167.4 51.2 164.8 C46.2 162.8 46.2 162.8 43 163.7 C41.8 164.3 40.6 164.8 39.3 165.4 C38 165.9 36.7 166.5 35.3 167.1 C34.6 167.4 34.6 167.4 31.1 169 C29.7 169.6 28.4 170.2 26.9 170.8 C16.7 175.4 16.7 175.4 13.2 178.8 C12.8 180.2 12.3 181.7 11.9 183.1 C10.2 187.8 10.2 187.8 7.4 190.6 C5.2 193.8 5.2 193.8 5.8 199.6 C6.3 201.7 6.7 203.8 7.2 205.8 C8.5 211.3 9.5 216.1 9.2 221.8 C8.4 222.1 8.4 222.1 4.2 223.8 C0 218.2 -0.5 211.9 -1.7 205.1 C-2.2 202.3 -3 199.5 -3.8 196.8 C-8.8 193.8 -8.8 193.8 -14.8 193.8 C-18.4 196.1 -21.5 198.8 -24.8 201.6 C-28.7 204.8 -28.7 204.8 -33.2 207.9 C-44.2 215.9 -44.2 215.9 -45.8 221.7 C-45.9 225.6 -45.9 225.6 -45.8 229.4 C-45.7 234.4 -47.6 237.1 -50.8 240.8 C-55.1 244.9 -59.1 246.7 -65.2 247.1 C-72.2 246.6 -74.6 245 -79.5 239.9 C-84.6 233.6 -85.3 229.8 -84.8 221.8 C-81.9 214.5 -78.7 211.3 -71.8 207.8 C-70.3 207.6 -68.8 207.5 -67.3 207.3 C-62.8 205.8 -62.8 205.8 -60.4 201.8 C-56.9 194.3 -54.1 186.5 -51.2 178.8 C-50.1 175.8 -48.9 172.9 -47.8 169.9 C-47.3 168.5 -46.8 167.1 -46.2 165.6 C-45 162.4 -43.7 159.2 -42.4 156.1 C-40.8 151.8 -40.8 151.8 -39.8 146.8 C-44.3 147.9 -45.3 149.1 -48.5 152.4 C-52.7 156.8 -57.2 160.8 -61.8 164.8 C-63.1 166.1 -64.4 167.5 -65.8 168.8 C-77.3 180.4 -77.3 180.4 -84.8 182.8 C-86.1 182.8 -87.4 182.8 -88.8 182.8 C-86.1 172.2 -76.7 165.7 -68.8 158.8 C-65.5 155.8 -62.3 152.8 -59 149.8 C-57 147.9 -54.9 146.1 -52.7 144.4 C-45.9 138.9 -45.9 138.9 -44.9 132.9 C-45.8 128.8 -45.8 128.8 -48.8 125.8 C-54.4 123.3 -60.3 121.2 -66.1 119.1 C-67.7 118.4 -69.4 117.8 -71 117.2 C-72.6 116.6 -74.1 116 -75.7 115.5 C-77.1 114.9 -78.6 114.4 -80 113.8 C-83.8 112.8 -83.8 112.8 -88.8 113.8 C-89.7 114.5 -90.6 115.1 -91.6 115.8 C-94.8 117.8 -94.8 117.8 -98.7 118.2 C-104.6 120.6 -105.9 124.7 -108.6 130.3 C-109.8 133.8 -109.8 133.8 -108.8 138.8 C-107.8 140.5 -106.8 142.1 -105.8 143.8 C-105.3 149.7 -105.4 153.9 -108.8 158.8 C-112.5 162.8 -114.9 164.6 -120.2 165.9 C-126.5 165.8 -130.7 163.9 -135.1 159.4 C-138.9 153.5 -139.1 149.5 -137.8 142.8 C-134.8 137.6 -132.3 134.9 -126.8 132.8 C-125.6 132.6 -124.4 132.4 -123.2 132.1 C-118.3 130.3 -117.2 127.4 -114.8 122.8 C-114.1 121.8 -113.5 120.8 -112.9 119.7 C-111.5 116.2 -111.7 114.4 -112.8 110.8 C-113.4 109.5 -114.1 108.2 -114.8 106.8 C-115.4 100.8 -113.9 96.9 -110.8 91.8 C-106.8 87.9 -103.8 87.7 -98.4 87.6 C-93.1 87.4 -90.6 86.5 -86.9 82.8 C-85.5 81.1 -84.1 79.5 -82.8 77.8 C-81.5 76.4 -80.2 74.9 -78.8 73.4 C-74.7 68.6 -73.5 66.8 -73.8 60.5 C-73.9 55.5 -73.9 52 -70.8 47.8 C-68.1 45.3 -66.2 44 -62.8 42.8 C-60.9 43.1 -59 43.4 -57.1 43.8 C-50.8 43.9 -47.7 41.6 -43.1 37.4 C-39.6 34 -36.1 30.4 -32.8 26.8 C-32.1 26.2 -32.1 26.2 -28.8 23.2 C-25.5 19.6 -24.9 18.4 -25.1 13.8 C-24.7 6.7 -23.3 4.2 -18.2 -0.5 C-12.2 -4.6 -6 -3.5 0 0 Z " fill="#00D5E7" transform="translate(353.75,133.1875)"/>
<path d="M0 0 C14.2 7.1 26.3 23.2 37.4 34.4 C40.6 37.6 43.7 40.8 46.9 43.9 C48.2 45.3 49.6 46.7 51 48.1 C54.9 51.9 58.9 55.5 63 59 C65.8 61.6 68.4 64.2 71 67 C71 67.7 71 68.3 71 69 C72.3 69.7 73.6 70.3 75 71 C79.3 74.8 83.2 78.8 87.2 82.8 C88.4 83.9 89.5 85 90.7 86.1 C91.7 87.2 92.8 88.2 93.9 89.3 C94.4 89.8 94.4 89.8 96.9 92.3 C99 95 99 95 99 100 C96.4 103.2 96.4 103.2 92.7 106.9 C91.4 108.3 90 109.7 88.6 111.1 C87.1 112.6 85.6 114.1 84.1 115.6 C82.5 117.2 81 118.7 79.5 120.2 C76.3 123.5 73 126.7 69.8 129.9 C65.6 134 61.5 138.2 57.4 142.4 C54.2 145.5 51.1 148.7 47.9 151.9 C46.3 153.4 44.8 154.9 43.3 156.5 C41.2 158.6 39 160.7 36.9 162.9 C35.7 164.1 34.5 165.3 33.2 166.5 C32.2 167.3 31.1 168.2 30 169 C24.5 167.9 23.4 166.9 19.6 163 C19.1 162.5 19.1 162.5 16.4 159.8 C15.3 158.7 14.1 157.5 13 156.3 C11.8 155.2 10.6 154 9.4 152.8 C5.7 149 1.9 145.2 -1.8 141.4 C-5.5 137.6 -9.3 133.8 -13 130.1 C-15.3 127.7 -17.7 125.4 -20 123 C-25.5 117.4 -31.1 112.1 -37 107 C-42 102.3 -46.9 97.4 -51.8 92.6 C-53.3 91.1 -54.9 89.5 -56.4 88 C-58.7 85.8 -60.9 83.6 -63.2 81.4 C-63.8 80.7 -63.8 80.7 -67.2 77.4 C-68.1 76.3 -69.1 75.1 -70 74 C-68.6 68.4 -64.9 65.6 -60.9 61.8 C-56.7 57.7 -52.6 53.7 -48.8 49.3 C-42 41.6 -34.5 34.5 -27.2 27.3 C-21.3 21.3 -15.4 15.4 -10 9 C-6.9 5.7 -3.6 2.8 0 0 Z " fill="#F7F7F7" transform="translate(138,370)"/>
<path d="M0 0 C4.8 1.1 7.9 2.7 10.6 6.8 C12.4 13.3 13.8 20 15.2 26.6 C15.7 28.4 16.1 30.2 16.5 32.1 C16.7 33 16.7 33 17.7 37.5 C17.9 38.3 17.9 38.3 18.8 42.4 C19.6 46.4 20 49.8 19.6 53.8 C16.2 58 16.2 58 12.6 61.8 C10.6 65.8 10.6 65.8 9.7 69.9 C8.6 73.8 8.6 73.8 5.6 76.8 C1.8 78.8 -2.1 80.6 -6 82.4 C-7.1 82.9 -8.1 83.4 -9.2 83.9 C-15.2 86.6 -20.8 88.9 -27.4 89.8 C-31.5 87.9 -31.5 87.9 -35.4 85.8 C-39.7 85.2 -41.7 85.5 -45.6 87.4 C-50.3 91.4 -52.2 94.2 -52.9 100.4 C-53.6 106.4 -55.9 108.5 -60.4 112.4 C-61.6 113.3 -62.7 114.2 -63.9 115.1 C-69.4 119.3 -74.8 123.6 -80.2 128 C-82.4 129.8 -82.4 129.8 -85.4 131.8 C-86.7 131.5 -88 131.2 -89.4 130.8 C-88.8 126.5 -87.7 123 -85.9 119 C-82.9 112.3 -80.4 105.4 -77.9 98.5 C-76.8 95.3 -75.6 92.1 -74.5 88.8 C-73.5 86.1 -72.5 83.3 -71.6 80.6 C-67.5 69.5 -67.5 69.5 -61.8 66 C-61.1 65.8 -61.1 65.8 -57.4 64.8 C-51.7 61.8 -49.7 58.8 -47.4 52.8 C-47.4 51.1 -47.3 49.4 -47.3 47.6 C-46.1 40 -43.1 37.2 -37.6 32.1 C-37.2 31.6 -37.2 31.6 -35 29.4 C-32.2 26.7 -29.3 24 -26.5 21.2 C-24.6 19.4 -22.7 17.5 -20.8 15.7 C-4.5 -0.3 -4.5 -0.3 0 0 Z " fill="#14325A" transform="translate(389.375,212.1875)"/>
<path d="M0 0 C3 1 3 1 5.1 4.2 C6.8 7.6 7.6 10.2 8 14 C9 14.2 9 14.2 14 15 C13.7 14.3 13.7 14.3 12 11 C12.3 10.3 12.7 9.7 13 9 C14.6 9.3 16.3 9.7 18 10 C17 15 17 15 16 18 C17 17.7 18.1 17.4 19.1 17.1 C23 17 23 17 26.2 19.8 C27.2 21 28.2 22.3 29.2 23.6 C30.3 24.8 31.3 26 32.3 27.3 C34.6 30.5 36.3 33.5 38 37 C40.3 39.1 42.6 41.1 45 43 C43.6 50 39.6 52.9 34 57 C32.7 57.4 31.4 57.7 30 58.1 C29 58.4 28 58.7 27 59 C26.9 59.5 26.9 59.5 26.1 62.2 C24.9 66.4 23.5 68.2 20.4 71.2 C19.5 72.2 18.5 73.1 17.6 74 C16.6 75 15.7 75.9 14.7 76.9 C13.7 77.8 12.8 78.8 11.8 79.8 C4.7 86.9 4.7 86.9 -1 88 C-2.6 87.3 -4.3 86.7 -6 86 C-13.3 85.3 -17.2 87.7 -23 92 C-30.9 91.6 -38.8 87.7 -46.1 84.9 C-46.9 84.7 -46.9 84.7 -50.9 83.3 C-51.6 83 -51.6 83 -55.4 81.6 C-56.7 81.1 -58.1 80.6 -59.5 80.1 C-64 77.4 -65.2 74.9 -67 70 C-65.6 63.1 -62 60.1 -57.2 55.2 C-56.4 54.3 -55.6 53.4 -54.8 52.5 C-48.6 46.2 -48.6 46.2 -43.8 45.5 C-40.9 45.6 -37.9 45.8 -35 46 C-33.5 44.9 -32 43.9 -30.4 42.8 C-26 40 -26 40 -21.2 40.7 C-19.1 41.4 -17.1 42.2 -15 43 C-14.2 43.3 -14.2 43.3 -10.1 44.6 C3.8 49.3 3.8 49.3 9.3 52.3 C10.5 52.9 11.7 53.4 13 54 C18 52 18 52 19 51 C19 49.3 19 47.7 19 46 C15.1 43 13.2 42.3 8.5 41.2 C-15.9 35.1 -15.9 35.1 -24 29 C-24.2 28.2 -24.2 28.2 -25 24 C-22.9 21.5 -22.9 21.5 -20 19 C-19.2 18.2 -18.4 17.3 -17.5 16.4 C-16.7 15.6 -15.9 14.7 -15.1 13.9 C-14.7 13.5 -14.7 13.5 -12.6 11.3 C-9.9 8.9 -7.2 7.6 -4 6 C-1.6 2.8 -1.6 2.8 0 0 Z " fill="#14325A" transform="translate(335,160)"/>
<path d="M0 0 C14.2 7.1 26.3 23.2 37.4 34.4 C40.6 37.6 43.7 40.8 46.9 43.9 C48.2 45.3 49.6 46.7 51 48.1 C54.9 51.9 58.9 55.5 63 59 C65.8 61.6 68.4 64.2 71 67 C71 67.7 71 68.3 71 69 C71.7 69.3 71.7 69.3 75 71 C79.3 74.8 83.2 78.8 87.2 82.8 C88.4 83.9 89.5 85 90.7 86.1 C91.7 87.2 92.8 88.2 93.9 89.3 C94.4 89.8 94.4 89.8 96.9 92.3 C99 95 99 95 99 100 C95.9 103.6 95.9 103.6 92 107.3 C90.7 108.6 89.4 109.8 88.1 111.1 C87.1 112.1 86 113 85 114 C80.3 112.4 78.2 108.7 75 105 C72.2 102.1 69.4 99.3 66.6 96.4 C65.9 95.7 65.1 95 64.4 94.3 C61.1 91 57.8 87.8 54.2 84.8 C47.2 78.6 40.8 71.8 34.2 65.2 C33.1 64.1 32.1 63 31 61.9 C30 60.9 29.1 60 28.1 59 C25.8 56.8 23.5 54.7 21.1 52.6 C17.1 49.1 13.4 45.5 9.8 41.8 C8.4 40.5 7.1 39.2 5.8 37.8 C4.4 36.5 3.1 35.1 1.7 33.7 C-1 31 -3.7 28.2 -6.4 25.5 C-7.6 24.3 -8.8 23.1 -10 21.9 C-13 19 -13 19 -16 17 C-13.5 12 -10.2 9.6 -6 6 C-4.6 4.4 -3.3 2.7 -2 1 C-1.3 0.7 -0.7 0.3 0 0 Z " fill="#A0B0C8" transform="translate(138,370)"/>
<path d="M0 0 C10 2.8 16.7 8.1 22 17 C23.4 20.4 24.6 23.7 25.8 27.1 C27 30 27 30 29 32 C28 37 28 37 26 39 C24 39.4 22 39.7 20 40 C19.7 41 19.3 42 19 43 C20 43.3 21 43.7 22 44 C16.3 45.5 11.7 46.6 6 45 C2.6 42.6 2.6 42.6 0 40 C0 39.3 0 38.7 0 38 C-1.3 37.3 -2.6 36.7 -4 36 C-6.4 34 -8.8 32 -11.2 29.9 C-12.4 28.9 -13.7 27.8 -15 26.7 C-19 23.1 -19 23.1 -19.2 20 C-19.4 17.5 -19.5 15 -19.6 12.5 C-20 9 -20 9 -22 4 C-15.1 -1.4 -8.5 -0.8 0 0 Z " fill="#0062E0" transform="translate(379,132)"/>
<path d="M0 0 C4.8 3.2 8.6 7.1 12.6 11.2 C13.4 12 14.2 12.8 15 13.7 C21 19.7 21 19.7 23.3 23.2 C22.1 29.5 19.7 31.5 15.3 36.2 C14.5 37.1 13.7 37.9 12.8 38.9 C6 45.9 6 45.9 0.3 48.2 C-4.9 45.5 -9 41.3 -13.3 37.2 C-14.6 36 -15.9 34.8 -17.2 33.6 C-23 27.9 -23 27.9 -24.7 25.2 C-22.7 15.4 -14 7.7 -6.7 1.2 C-2.7 -0.8 -2.7 -0.8 0 0 Z " fill="#0C1A2E" transform="translate(128.671875,405.8125)"/>
<path d="M0 0 C3.5 2.9 6.7 5.8 10 9 C11.1 10 12.2 11 13.3 12.1 C14.4 13.1 15.4 14.1 16.6 15.2 C17.6 16.2 18.6 17.1 19.6 18.1 C22.2 21.3 23 22.9 23 27 C20.8 30 18.6 32.4 16 35 C15.1 36 14.2 36.9 13.3 37.9 C5.7 45.7 5.7 45.7 0 48 C-5.7 45.2 -9.9 40.4 -14.2 35.9 C-15 35.2 -15.7 34.5 -16.4 33.8 C-19.2 31 -21.8 28.3 -24 25 C-23.9 19.5 -21.6 16.9 -17.9 13.1 C-16.9 12 -15.9 11 -14.9 9.9 C-13.9 9 -13 8 -12 7 C-10.7 5.6 -9.4 4.2 -8.1 2.8 C-5 0 -5 0 0 0 Z " fill="#0C1A2E" transform="translate(179,455)"/>
<path d="M0 0 C5 3.6 6.9 6.6 9.2 12.3 C20.6 17.4 32.9 21.2 45.1 24.3 C48.2 25.3 48.2 25.3 51.2 28.3 C51.2 33.3 51.2 33.3 49.1 35.8 C46.2 37.3 46.2 37.3 43.4 36.6 C40.1 35.3 36.8 33.9 33.4 32.6 C27.5 30.2 21.5 27.9 15.5 25.8 C14 25.3 12.5 24.8 11 24.2 C7.2 23.3 7.2 23.3 3.2 25.3 C2.1 26 1.1 26.7 0 27.4 C-4.7 29.7 -7.6 29.9 -12.8 29.3 C-16.8 27.5 -16.8 27.5 -19.8 25.3 C-20.1 24.3 -20.5 23.3 -20.8 22.3 C-21.5 22.3 -22.1 22.3 -22.8 22.3 C-24.2 16.7 -24.6 11.6 -22.6 6 C-17.2 -2.1 -8.9 -3.9 0 0 Z " fill="#00D6E8" transform="translate(303.8125,177.6875)"/>
<path d="M0 0 C4.3 3.4 8.1 7.1 12 11 C13.3 12.2 14.7 13.3 16.1 14.5 C22.1 19.9 22.1 19.9 24 23 C23.8 23.8 23.8 23.8 23 28 C22.9 30.3 22.9 32.5 22.9 34.8 C22.9 36 23 37.1 23 38.3 C23 39.2 23 40.1 23 41 C16.9 36.9 13.7 33.2 10 27 C8.6 25 7.1 23 5.6 21 C4.9 20.1 4.2 19.1 3.5 18.1 C1 16 1 16 -2.8 15.7 C-3.8 15.8 -4.9 15.9 -6 16 C-5.7 13.4 -5.3 10.7 -5 8 C-6.3 7.7 -7.6 7.3 -9 7 C-8 11 -8 11 -7 14 C-9.3 13.7 -11.6 13.3 -14 13 C-14.5 11.7 -14.9 10.5 -15.4 9.2 C-17 5 -17 5 -19 2 C-19 1 -19 0 -19 -1 C-18.3 -1 -18.3 -1 -14.8 -0.9 C-2.7 -1.1 -2.7 -1.1 0 0 Z " fill="#0161DE" transform="translate(357,162)"/>
<path d="M0 0 C1.2 0.4 2.4 0.8 3.7 1.2 C9.7 3.2 15.6 5.1 21.6 7.1 C22.7 7.4 23.8 7.8 24.9 8.1 C26 8.5 27.1 8.8 28.2 9.2 C28.7 9.3 28.7 9.3 31.2 10.1 C33.5 10.8 35.8 11.5 38.1 12.1 C41 13 41 13 44 16 C44 21 44 21 41.9 23.4 C39 25 39 25 36.2 24.3 C32.9 23 29.7 21.7 26.4 20.3 C17 16.5 7.5 13.3 -2 10 C-1.3 6.7 -0.7 3.4 0 0 Z " fill="#0065E7" transform="translate(311,190)"/>
<path d="M0 0 C3.8 1.3 5 2.6 7 6 C6.2 10.3 5.1 11.9 2 15 C1.6 15.2 1.6 15.2 -0.6 16.1 C-4.8 18.4 -7.6 21.4 -10.9 24.8 C-13.1 27.1 -15.4 29.1 -18 31 C-20.3 29 -22.6 27 -25 25 C-20.9 19.9 -16.5 15.6 -11.6 11.4 C-7.6 7.7 -3.8 3.9 0 0 Z " fill="#0065E7" transform="translate(328,153)"/>
<path d="M0 0 C7.7 3.1 9.4 8.6 12.8 15.9 C13.2 16.8 13.2 16.8 15.2 21.2 C17.7 28 17.7 28 16 32 C14.4 32.7 12.7 33.3 11 34 C6 29.7 3.8 25 1.2 19.1 C0.4 17.3 -0.4 15.6 -1.2 13.8 C-3 9 -3 9 -3 3 C-2 2 -1 1 0 0 Z " fill="#0065E7" transform="translate(374,242)"/>
<path d="M0 0 C3 0 3 0 5.7 2.5 C6.5 3.3 7.2 4.2 8 5 C5.3 10.4 1.1 14.1 -3.1 18.2 C-4 19.1 -4.8 19.9 -5.7 20.8 C-7.8 22.9 -9.9 24.9 -12 27 C-14.3 25.3 -16.6 23.7 -19 22 C-14 16.1 -8.8 10.4 -3.5 4.8 C-1 2 -1 2 0 0 Z " fill="#0065E7" transform="translate(280,200)"/>
</svg>
