<?xml version="1.0" encoding="UTF-8"?>
<svg xmlns="http://www.w3.org/2000/svg" viewBox="0 0 601 600" width="601" height="600">
  <title>NeuralDrive Logo</title>
  <rect width="601" height="600" fill="#f7f7f7"/>
  <g transform="translate(0,600) scale(0.1,-0.1)" stroke="none">
    <path d="M3790 5710 c-172 -18 -303 -86 -465 -241 -261 -250 -2084 -2111
-2137 -2182 -79 -106 -137 -312 -123 -441 13 -120 44 -211 101 -297 30 -44 54
-88 54 -96 0 -9 -175 -192 -388 -407 -213 -215 -401 -408 -416 -429 -25 -33
-27 -41 -17 -61 7 -12 198 -205 424 -427 773 -761 824 -809 847 -809 16 0 142
120 448 430 240 243 433 430 443 430 9 0 38 -9 63 -20 71 -30 210 -53 275 -45
133 16 245 60 346 136 51 38 856 850 1765 1780 335 341 506 523 529 562 164
277 143 565 -60 832 -21 28 -260 267 -531 530 -270 264 -517 505 -547 535 -62
61 -174 139 -242 168 -69 30 -208 62 -258 61 -25 -1 -75 -5 -111 -9z m49 -53
c17 -21 -21 -51 -54 -43 -14 4 -25 12 -25 19 0 34 57 50 79 24z m76 -119 c53
3 63 0 81 -21 12 -13 51 -33 92 -46 l71 -23 594 -592 c630 -627 629 -626 662
-753 19 -73 19 -183 0 -256 -35 -136 -46 -148 -528 -641 -1292 -1320 -1771
-1800 -1826 -1829 -66 -36 -145 -50 -242 -45 -133 7 -177 35 -394 247 -783
766 -1049 1030 -1074 1070 -54 84 -73 163 -69 277 3 92 6 107 40 175 41 82
-78 -43 1312 1379 362 371 703 718 756 770 53 52 110 112 125 133 15 20 33 37
40 37 23 0 201 89 220 110 15 16 25 19 49 13 17 -4 58 -6 91 -5z m-2476 -3280
c25 -23 245 -237 489 -476 305 -300 442 -441 442 -456 0 -23 -685 -716 -708
-716 -16 0 -982 948 -982 964 0 5 44 55 98 110 354 366 601 616 607 616 4 0
29 -19 54 -42z M1245 1938 c-58 -31 -205 -198 -205 -234 0 -19 175 -195 224
-225 25 -15 33 -16 55 -4 43 21 201 192 201 215 0 23 -188 223 -230 245 -19
10 -31 10 -45 3z M1669 1373 c-92 -94 -119 -130 -119 -155 0 -22 181 -213 221
-233 22 -12 30 -11 55 4 54 34 194 187 194 212 0 34 -218 249 -251 249 -17 0
-47 -23 -100 -77z" fill="#0c1a2e"/>
    <path d="M3787 5500 c-73 -9 -172 -50 -234 -97 -20 -15 -75 -67 -122 -114
-178 -177 -1057 -1074 -1555 -1584 -476 -488 -520 -536 -554 -604 -34 -68 -37
-83 -40 -175 -4 -114 15 -193 69 -277 25 -40 291 -304 1074 -1070 217 -212
261 -240 394 -247 97 -5 176 9 242 45 55 29 534 509 1826 1829 482 493 493
505 528 641 19 73 19 183 0 256 -33 127 -36 131 -574 664 -278 275 -535 530
-571 566 -74 74 -155 128 -220 150 -59 19 -178 27 -263 17z m104 -632 c94 -35
155 -73 225 -140 70 -67 107 -130 123 -208 17 -85 5 -112 -96 -207 l-86 -83
39 -35 c21 -19 42 -34 45 -35 4 0 46 44 93 99 47 54 100 104 116 111 75 31
190 -17 296 -124 80 -81 123 -152 154 -255 19 -61 21 -89 18 -189 -6 -162 -33
-223 -179 -403 -12 -16 -27 -58 -36 -105 -18 -97 -52 -179 -109 -266 -66 -99
-131 -152 -269 -218 -66 -32 -128 -67 -138 -78 -10 -10 -33 -56 -52 -101 -62
-146 -163 -269 -278 -339 -64 -39 -185 -82 -229 -82 -24 0 -45 -15 -110 -80
-149 -149 -328 -206 -523 -165 -157 33 -302 136 -368 262 -42 81 -67 162 -67
217 0 23 -4 47 -9 55 -5 8 -45 19 -94 26 -116 17 -201 58 -281 135 -109 105
-159 224 -160 380 0 161 40 258 162 392 52 57 64 78 82 140 55 194 140 304
291 377 100 48 110 57 139 131 41 104 83 171 144 227 55 51 88 70 222 128 19
8 73 62 132 132 54 65 124 141 154 170 73 68 210 136 318 157 14 2 79 3 145 1
98 -2 132 -7 186 -27z M3603 4658 c-29 -22 -30 -25 -17 -48 7 -14 13 -55 14
-91 0 -57 3 -69 25 -89 23 -21 27 -22 51 -10 25 14 27 12 69 -35 29 -32 44
-60 45 -77 0 -25 32 -56 53 -50 4 1 7 -5 7 -13 0 -23 39 -27 105 -11 33 8 52
15 42 15 -32 2 -16 36 18 39 55 6 81 47 51 81 -8 9 -24 41 -36 71 -38 97 -53
121 -100 160 -62 52 -119 73 -215 77 -72 4 -83 2 -112 -19z M3158 4347 l-127
-122 36 -30 36 -31 75 71 c41 38 88 77 105 85 17 8 39 29 50 47 l18 32 -28 36
c-15 19 -30 35 -33 34 -3 0 -62 -55 -132 -122z M3490 4389 c-19 -5 -52 -6 -72
-3 -44 7 -49 -6 -18 -46 11 -14 20 -37 20 -52 0 -29 24 -48 60 -48 21 0 21 2
8 23 -18 27 -13 47 13 47 25 0 36 -27 21 -51 -20 -32 -15 -42 22 -36 31 5 37
1 94 -67 34 -41 66 -84 71 -98 5 -14 27 -39 49 -56 l39 -31 -1 67 c0 37 4 77
8 90 7 19 0 32 -55 85 -49 48 -64 58 -67 45 -5 -23 -19 -23 -60 2 -36 22 -38
45 -3 44 11 0 21 2 21 6 0 8 -101 90 -109 89 -3 -1 -22 -5 -41 -10z M4327
4143 c-40 -5 -60 -28 -36 -44 8 -5 42 -8 76 -7 48 2 66 -1 81 -15 14 -13 22
-15 27 -7 11 18 -3 40 -25 40 -11 0 -20 4 -20 8 0 9 -46 33 -58 30 -4 -1 -24
-3 -45 -5z M3108 4068 c-3 -18 -8 -40 -12 -49 -6 -14 14 -24 121 -59 70 -24
162 -58 203 -77 74 -34 74 -34 100 -15 36 27 38 65 4 91 -15 11 -36 21 -48 21
-18 1 -297 92 -347 114 -13 6 -18 0 -21 -26z M2798 3991 c-1 -5 -44 -54 -95
-109 l-91 -98 32 -26 33 -26 103 103 103 104 -32 30 c-35 32 -47 37 -53 22z
M3645 3821 c-21 -4 -31 -13 -33 -29 -5 -30 9 -28 43 8 16 17 27 29 24 29 -2
-1 -17 -4 -34 -8z M3727 3562 c-26 -28 -22 -47 35 -176 56 -126 81 -156 117
-137 38 21 35 47 -19 169 -46 104 -85 162 -109 162 -4 0 -15 -8 -24 -18z
M2657 2873 c-14 -13 -7 -33 11 -33 26 0 34 11 21 27 -13 14 -22 16 -32 6z" fill="#0065e7"/>
    <path d="M3772 5658 c-19 -19 -14 -37 13 -44 33 -8 71 22 54 43 -14 16 -51 17
-67 1z M3761 5519 c-30 -27 -31 -30 -10 -24 13 5 75 8 137 8 61 0 112 3 112 7
0 20 -33 31 -87 29 -32 -2 -71 0 -88 4 -25 6 -36 1 -64 -24z M4124 5451 c3 -5
22 -18 41 -30 35 -20 35 -20 25 0 -6 11 -22 24 -36 29 -31 12 -37 12 -30 1z
M3560 4894 c-108 -21 -245 -89 -318 -157 -30 -29 -100 -105 -154 -170 -59 -70
-113 -124 -132 -132 -134 -58 -167 -77 -222 -128 -61 -56 -103 -123 -144 -227
-29 -74 -39 -83 -139 -131 -151 -73 -236 -183 -291 -377 -18 -62 -30 -83 -82
-140 -122 -134 -162 -231 -162 -392 1 -156 51 -275 160 -380 80 -77 165 -118
281 -135 49 -7 89 -18 94 -26 5 -8 9 -32 9 -55 0 -55 25 -136 67 -217 45 -85
129 -164 225 -212 234 -115 479 -72 666 115 65 65 86 80 110 80 44 0 165 43
229 82 115 70 216 193 278 339 19 45 42 91 52 101 10 11 72 46 138 78 138 66
203 119 269 218 57 87 91 169 109 266 9 47 24 89 36 105 146 180 173 241 179
403 3 100 1 128 -18 189 -31 103 -74 174 -154 255 -106 107 -221 155 -296 124
-16 -7 -70 -58 -118 -114 -72 -82 -88 -105 -81 -121 4 -11 8 -43 8 -70 1 -28
8 -60 16 -72 8 -12 72 -57 142 -100 l128 -78 67 3 c57 2 71 -1 88 -18 26 -26
26 -79 0 -130 -45 -88 -124 -76 -169 25 -10 24 -30 50 -43 58 -257 160 -268
165 -303 127 -17 -19 -17 -24 9 -147 14 -71 38 -179 52 -242 l26 -113 47 -20
c69 -30 111 -66 132 -112 34 -75 18 -149 -45 -213 -67 -66 -160 -71 -249 -12
l-46 30 -153 -67 c-158 -68 -198 -94 -198 -126 0 -24 -15 -53 -52 -99 l-29
-36 26 -113 c31 -138 31 -156 3 -171 -34 -18 -51 14 -78 142 -13 66 -30 122
-40 132 -9 10 -35 21 -56 24 -38 4 -45 0 -196 -122 l-158 -126 0 -70 c0 -104
-39 -169 -122 -204 -96 -39 -195 3 -249 107 -32 63 -19 158 29 211 25 28 87
57 119 57 52 0 69 24 127 173 30 78 78 200 106 272 52 135 58 160 38 168 -7 2
-96 -73 -198 -169 -149 -139 -193 -175 -227 -185 -105 -29 -58 38 182 257 204
186 205 187 205 228 0 23 -6 50 -12 59 -7 10 -100 49 -206 88 l-193 70 -46
-30 c-26 -17 -59 -31 -75 -31 -37 0 -63 -28 -101 -108 l-30 -65 26 -48 c45
-79 32 -156 -36 -216 -47 -41 -95 -50 -151 -29 -105 40 -142 149 -84 244 21
34 83 72 116 72 33 0 66 35 101 109 l35 71 -22 45 c-27 55 -27 87 -3 142 26
57 61 77 144 83 l70 5 91 98 90 99 1 78 c0 63 4 84 21 107 34 47 80 65 150 59
l61 -5 127 120 126 121 0 54 c0 90 50 156 131 169 35 6 51 2 101 -24 l60 -30
27 20 c24 18 39 20 107 16 95 -5 152 -25 214 -77 47 -39 62 -63 100 -160 12
-30 28 -62 36 -71 30 -34 4 -75 -51 -81 -17 -2 -31 -10 -33 -18 -2 -14 39 -40
63 -40 6 0 50 37 98 83 101 95 113 122 96 207 -16 78 -53 141 -123 208 -70 67
-131 105 -225 140 -54 20 -88 25 -186 27 -66 2 -131 1 -145 -1z m845 -756 c14
-6 25 -15 25 -20 0 -4 9 -8 20 -8 22 0 36 -22 25 -40 -5 -8 -13 -6 -27 7 -15
14 -33 17 -81 15 -34 -1 -68 2 -76 7 -24 16 -4 39 36 44 21 2 41 4 45 5 4 1
19 -3 33 -10z M3671 4416 c-9 -11 0 -24 46 -65 32 -28 61 -51 66 -51 19 0 3
36 -35 81 -43 51 -58 58 -77 35z M3331 4365 c-11 -19 -33 -40 -50 -47 -16 -7
-63 -45 -104 -84 -65 -61 -74 -74 -70 -98 3 -15 15 -33 27 -41 26 -17 320
-115 345 -115 10 0 30 -10 45 -21 34 -27 32 -64 -5 -91 -26 -20 -26 -20 -77 6
-28 14 -117 48 -196 75 l-146 50 -52 -36 c-49 -32 -57 -35 -109 -30 l-56 5
-102 -102 c-55 -56 -101 -107 -101 -113 0 -6 8 -31 19 -55 18 -43 21 -45 127
-85 60 -23 148 -56 196 -73 l87 -32 44 31 c56 41 104 49 162 27 31 -12 49 -14
62 -7 10 5 66 58 125 118 80 81 107 115 110 138 2 24 9 30 36 36 33 7 129 86
147 122 8 16 1 26 -38 59 -26 22 -47 46 -47 53 0 8 -30 50 -66 94 -63 76 -68
79 -100 74 -37 -6 -43 4 -22 36 15 24 4 51 -21 51 -26 0 -31 -20 -13 -47 13
-21 13 -23 -8 -23 -36 0 -60 19 -60 48 0 15 -9 38 -20 52 -11 14 -20 30 -20
36 0 28 -30 21 -49 -11z M3597 4303 c-4 -3 -7 -10 -7 -15 0 -10 60 -48 78 -48
21 0 13 28 -14 49 -27 22 -46 26 -57 14z M3643 3668 l-213 -212 0 -50 c0 -55
-26 -121 -57 -149 -11 -10 -47 -28 -79 -40 l-59 -23 -61 -160 c-34 -87 -74
-193 -89 -234 -15 -41 -41 -106 -57 -143 -29 -68 -31 -97 -5 -97 14 0 290 217
320 252 10 12 17 37 17 63 0 50 29 99 79 132 44 30 86 29 147 -2 43 -22 53
-23 83 -14 33 11 291 125 296 131 11 14 25 51 25 68 0 30 33 90 69 124 19 18
31 40 31 55 0 42 -97 451 -111 467 -15 19 -74 44 -102 44 -13 0 -96 -76 -234
-212z m140 -110 c34 -32 131 -251 122 -277 -10 -32 -42 -45 -68 -28 -23 15
-128 238 -127 271 0 20 27 56 41 56 4 0 19 -10 32 -22z" fill="#143250"/>
    <path d="M1300 2222 l-81 -78 193 -190 c106 -105 324 -318 485 -473 161 -156
299 -293 307 -305 14 -21 16 -20 90 54 48 46 76 83 76 96 0 15 -133 152 -442
456 -451 442 -530 518 -542 518 -3 0 -42 -35 -86 -78z" fill="#a0b0c8"/>
    <path d="M3396 4690 c-65 -20 -106 -83 -106 -163 0 -47 4 -59 35 -94 29 -34
42 -41 82 -46 26 -4 66 -2 87 3 48 11 52 9 134 -66 173 -159 185 -172 176
-196 -4 -13 -8 -61 -8 -108 l-1 -85 -80 -77 c-44 -42 -134 -131 -200 -198 -66
-67 -128 -126 -138 -131 -13 -7 -31 -5 -62 7 -58 22 -106 14 -162 -27 l-44
-31 -112 41 c-62 22 -150 55 -196 73 l-85 33 -22 55 c-31 78 -73 110 -144 110
-71 0 -115 -26 -140 -83 -25 -55 -25 -86 2 -142 l22 -45 -35 -71 c-35 -74 -68
-109 -101 -109 -33 0 -95 -38 -116 -72 -58 -95 -21 -204 84 -244 56 -21 104
-12 151 29 68 60 81 137 36 216 l-26 48 30 65 c38 80 64 108 101 108 16 0 49
14 75 31 l46 30 193 -70 c106 -39 199 -78 206 -88 6 -9 12 -36 12 -58 0 -42
-1 -43 -210 -234 -115 -106 -210 -198 -210 -205 0 -7 8 -20 19 -30 32 -29 33
-28 304 226 75 71 141 127 146 124 13 -8 0 -55 -47 -176 -23 -58 -69 -176
-102 -262 -64 -165 -80 -188 -133 -188 -32 0 -94 -29 -119 -57 -48 -53 -61
-148 -29 -211 54 -104 153 -146 249 -107 83 35 122 100 122 204 l0 70 158 126
c151 122 158 126 196 122 21 -3 47 -14 56 -24 10 -10 27 -66 40 -132 27 -128
44 -160 78 -142 28 15 28 33 -3 171 l-26 113 29 36 c37 46 52 75 52 99 0 32
40 58 198 126 l153 67 46 -30 c89 -59 182 -54 249 12 63 64 79 138 45 213 -21
46 -63 82 -132 112 l-47 20 -26 113 c-14 63 -38 171 -52 242 -26 123 -26 128
-9 147 35 38 46 33 303 -127 13 -8 33 -34 43 -58 45 -101 124 -113 169 -25 26
51 26 104 0 130 -17 17 -31 20 -88 18 l-67 -3 -126 78 c-70 42 -133 84 -140
93 -7 9 -16 48 -20 87 -6 69 -8 73 -53 113 -53 49 -102 61 -166 44 -55 -15
-76 -9 -127 37 -22 21 -80 71 -127 112 l-86 73 0 64 c0 88 -21 128 -84 159
-53 26 -73 29 -120 15z m536 -824 c19 -8 40 -22 47 -30 14 -16 111 -425 111
-467 0 -15 -12 -37 -31 -55 -36 -34 -69 -94 -69 -124 0 -17 -14 -54 -25 -68
-5 -6 -263 -120 -296 -131 -30 -9 -40 -8 -83 14 -61 31 -103 32 -147 2 -50
-33 -79 -82 -79 -132 0 -26 -7 -51 -17 -63 -30 -35 -306 -252 -320 -252 -26 0
-24 29 5 97 16 37 42 102 57 143 15 41 55 147 89 234 l61 160 59 23 c32 12 68
30 79 40 31 28 57 94 57 149 l0 50 213 212 c138 136 221 212 234 212 11 0 36
-6 55 -14z M2881 4223 c-58 -30 -76 -65 -76 -143 0 -64 2 -70 33 -99 60 -58
128 -67 199 -26 49 29 73 75 75 141 1 51 -12 76 -58 110 -46 36 -124 43 -173
17z" fill="#00d6e8"/>
  </g>
</svg>