<?xml version="1.0" encoding="UTF-8"?>
<!-- Generator: visioncortex VTracer 0.6.5 -->
<svg version="1.1" xmlns="http://www.w3.org/2000/svg" width="601" height="600">
<path d="M0 0 C9.67 -0.12 19.35 -0.12 29.02 -0.1 C31.66 -0.1 34.3 -0.1 36.94 -0.11 C119.61 -0.27 205.2 6.46 332.16 74.9 C386.32 130.58 400.48 224.83 407.29 372.26 C407.29 374.9 407.29 377.54 407.3 380.17 C407.46 462.72 400.7 548.18 332.16 674.9 C276.34 729.02 181.95 743.11 34.3 749.9 C31.66 749.9 29.02 749.9 26.38 749.91 C-56.29 750.07 -141.88 743.34 -268.84 674.9 C-323 619.23 -337.16 524.97 -343.97 377.54 C-343.96 374.9 -343.97 372.26 -343.97 369.63 C-344.14 287.08 -337.38 201.62 0 0 Z " fill="#F6F6F6" transform="translate(268.83787775039673,-74.90086555480957)"/>
<path d="M0 0 C13.08 10.25 24.58 22.41 36.25 34.19 C39.32 37.28 42.39 40.37 45.46 43.46 C46.14 44.15 46.82 44.84 47.53 45.55 C50.63 48.67 53.75 51.68 57.08 54.54 C63.37 59.96 69.18 65.89 75.06 71.73 C75.71 72.37 76.35 73.01 77.02 73.66 C80.43 77.05 83.83 80.43 87.24 83.82 C90.03 86.6 92.83 89.38 95.64 92.14 C99.06 95.51 102.46 98.89 105.86 102.28 C107.14 103.56 108.43 104.83 109.72 106.1 C126.11 122.19 136.31 140.04 136.88 163.56 C136.89 180.59 129.2 198.19 117.49 210.35 C116.81 211.02 116.14 211.69 115.44 212.38 C115.02 212.79 115.02 212.79 112.94 214.88 C112.52 215.29 112.52 215.29 110.44 217.38 C109.14 218.83 107.85 220.29 106.56 221.75 C101.46 227.43 96.11 232.82 90.7 238.19 C88.95 239.93 87.2 241.67 85.45 243.41 C81.74 247.11 78.03 250.81 74.31 254.5 C70 258.79 65.68 263.09 61.37 267.39 C59.66 269.09 57.95 270.79 56.23 272.49 C51.36 277.34 46.6 282.23 42.13 287.46 C38.73 291.31 35.04 294.89 31.4 298.51 C30.55 299.35 29.71 300.2 28.84 301.06 C26.17 303.73 23.49 306.4 20.81 309.06 C19.01 310.86 17.2 312.66 15.4 314.46 C12.09 317.76 8.78 321.06 5.47 324.35 C4.77 325.06 4.07 325.76 3.34 326.48 C2.19 327.63 1.03 328.78 -0.13 329.92 C-2.23 332.01 -4.16 334.09 -6.06 336.38 C-8.44 339.22 -10.93 341.77 -13.56 344.38 C-14.38 345.19 -15.2 346.01 -16.05 346.85 C-16.92 347.72 -17.79 348.59 -18.69 349.48 C-23.6 354.38 -28.52 359.29 -33.43 364.19 C-36.39 367.15 -39.36 370.1 -42.32 373.06 C-45.2 375.93 -48.08 378.8 -50.96 381.68 C-52.05 382.77 -53.15 383.86 -54.24 384.95 C-55.77 386.47 -57.3 388 -58.82 389.52 C-59.69 390.39 -60.56 391.26 -61.46 392.15 C-63.56 394.38 -63.56 394.38 -65.56 397.38 C-66.22 397.38 -66.88 397.38 -67.56 397.38 C-68.25 398.7 -68.92 400.03 -69.56 401.38 C-70.91 402.99 -70.91 402.99 -72.48 404.56 C-73.06 405.16 -73.65 405.76 -74.26 406.38 C-74.58 406.69 -74.58 406.69 -76.19 408.3 C-76.85 408.97 -77.51 409.63 -78.19 410.32 C-79.6 411.73 -81 413.13 -82.41 414.54 C-84.54 416.66 -86.65 418.8 -88.76 420.94 C-97.42 429.63 -105.8 437.55 -117.12 442.69 C-117.63 442.92 -117.63 442.92 -120.19 444.11 C-127.72 446.93 -134.87 447.74 -142.88 447.69 C-143.8 447.68 -144.72 447.68 -145.66 447.67 C-161.66 447.41 -161.66 447.41 -167.29 443.03 C-169.5 441.46 -170.85 440.65 -173.56 440.38 C-177.75 442.92 -180.86 446.51 -184.12 450.12 C-185.03 451.08 -185.94 452.03 -186.87 453.01 C-189.97 456.29 -193.04 459.58 -195.96 463.02 C-201.96 470.04 -208.51 476.54 -215.01 483.1 C-215.65 483.74 -216.29 484.39 -216.95 485.05 C-220.32 488.45 -223.7 491.85 -227.08 495.24 C-229.87 498.05 -232.66 500.86 -235.44 503.68 C-238.81 507.1 -242.19 510.51 -245.58 513.9 C-246.86 515.2 -248.15 516.5 -249.43 517.8 C-251.21 519.61 -253 521.41 -254.8 523.2 C-255.33 523.74 -255.86 524.28 -256.4 524.84 C-257.89 526.31 -257.89 526.31 -260.56 528.38 C-265.1 527.88 -267.55 524.78 -270.6 521.67 C-271.19 521.07 -271.79 520.47 -272.4 519.86 C-274.36 517.89 -276.32 515.91 -278.27 513.93 C-279.64 512.55 -281 511.18 -282.37 509.8 C-285.98 506.18 -289.58 502.55 -293.17 498.92 C-298.91 493.12 -304.66 487.33 -310.42 481.54 C-312.42 479.52 -314.42 477.5 -316.42 475.48 C-317.66 474.23 -318.9 472.98 -320.14 471.73 C-320.69 471.18 -321.24 470.62 -321.8 470.05 C-325.04 466.79 -328.41 463.76 -331.92 460.8 C-334.26 458.77 -336.4 456.59 -338.56 454.38 C-340.35 452.61 -342.14 450.85 -343.94 449.1 C-349.11 444.02 -354.27 438.93 -359.42 433.83 C-362.53 430.75 -365.64 427.68 -368.77 424.62 C-371.81 421.65 -374.82 418.67 -377.83 415.67 C-378.98 414.54 -380.14 413.4 -381.3 412.28 C-382.91 410.7 -384.5 409.12 -386.1 407.52 C-387.01 406.62 -387.92 405.72 -388.86 404.8 C-389.42 404 -389.98 403.2 -390.56 402.38 C-389.79 399.33 -387.89 397.46 -385.69 395.29 C-385.4 395.01 -385.4 395.01 -383.94 393.55 C-383.32 392.94 -382.69 392.33 -382.05 391.7 C-381.73 391.38 -381.73 391.38 -380.09 389.76 C-378.02 387.71 -375.95 385.67 -373.88 383.62 C-371.82 381.6 -369.76 379.57 -367.71 377.53 C-366.44 376.27 -365.16 375.01 -363.88 373.75 C-360.1 370.02 -356.54 366.15 -353.07 362.12 C-351.2 359.96 -349.26 357.9 -347.25 355.88 C-346.59 355.2 -345.94 354.53 -345.26 353.84 C-343.56 352.38 -343.56 352.38 -341.56 352.38 C-340.89 351.05 -340.22 349.71 -339.56 348.38 C-337.99 346.66 -337.99 346.66 -336.12 344.93 C-335.77 344.6 -335.77 344.6 -334 342.94 C-333.62 342.59 -333.62 342.59 -331.72 340.83 C-330.15 339.33 -328.58 337.83 -327.01 336.33 C-324.53 333.96 -322.04 331.61 -319.53 329.29 C-317.1 327.04 -314.72 324.75 -312.34 322.45 C-311.58 321.76 -310.81 321.07 -310.02 320.36 C-306.57 316.95 -306.57 316.95 -305.56 314.38 C-306.87 311.04 -309.07 308.88 -311.56 306.38 C-322.09 291.13 -324.28 272.16 -321.16 254 C-320.1 249.58 -318.47 245.51 -316.56 241.38 C-316.14 240.41 -315.72 239.44 -315.28 238.45 C-307.11 221.68 -289.92 208.64 -276.81 195.62 C-273.25 192.09 -269.7 188.56 -266.15 185.01 C-264.74 183.62 -263.34 182.23 -261.93 180.83 C-257.56 176.47 -253.36 172.06 -249.33 167.37 C-245.86 163.45 -242.1 159.81 -238.38 156.12 C-237.94 155.7 -237.94 155.7 -235.76 153.53 C-232.11 149.89 -228.45 146.26 -224.8 142.63 C-222.11 139.96 -219.43 137.29 -216.75 134.62 C-215.93 133.82 -215.12 133.01 -214.27 132.17 C-210.75 128.67 -207.31 125.14 -204.06 121.38 C-200.06 116.73 -195.73 112.44 -191.38 108.12 C-190.94 107.7 -190.94 107.7 -188.76 105.53 C-185.11 101.89 -181.45 98.26 -177.8 94.63 C-175.11 91.96 -172.43 89.29 -169.75 86.62 C-168.93 85.82 -168.12 85.01 -167.27 84.17 C-163.86 80.77 -160.51 77.37 -157.38 73.7 C-151.71 67.12 -145.46 61.06 -139.34 54.91 C-138.65 54.22 -137.97 53.54 -137.26 52.83 C-133.65 49.19 -130.03 45.55 -126.4 41.92 C-122.69 38.2 -119 34.47 -115.3 30.73 C-112.43 27.83 -109.55 24.94 -106.66 22.06 C-105.3 20.69 -103.93 19.31 -102.58 17.93 C-74.51 -10.49 -36.22 -25.22 0 0 Z " fill="#0369E7" transform="translate(428.5625,40.625)"/>
<path d="M0 0 C13.08 10.25 24.58 22.41 36.25 34.19 C39.32 37.28 42.39 40.37 45.46 43.46 C46.14 44.15 46.82 44.84 47.53 45.55 C50.63 48.67 53.75 51.68 57.08 54.54 C63.37 59.96 69.18 65.89 75.06 71.73 C75.71 72.37 76.35 73.01 77.02 73.66 C80.43 77.05 83.83 80.43 87.24 83.82 C90.03 86.6 92.83 89.38 95.64 92.14 C99.06 95.51 102.46 98.89 105.86 102.28 C107.14 103.56 108.43 104.83 109.72 106.1 C126.11 122.19 136.31 140.04 136.88 163.56 C136.89 180.59 129.2 198.19 117.49 210.35 C116.81 211.02 116.14 211.69 115.44 212.38 C115.02 212.79 115.02 212.79 112.94 214.88 C112.52 215.29 112.52 215.29 110.44 217.38 C109.14 218.83 107.85 220.29 106.56 221.75 C101.46 227.43 96.11 232.82 90.7 238.19 C88.95 239.93 87.2 241.67 85.45 243.41 C81.74 247.11 78.03 250.81 74.31 254.5 C70 258.79 65.68 263.09 61.37 267.39 C59.66 269.09 57.95 270.79 56.23 272.49 C51.36 277.34 46.6 282.23 42.13 287.46 C38.73 291.31 35.04 294.89 31.4 298.51 C30.55 299.35 29.71 300.2 28.84 301.06 C26.17 303.73 23.49 306.4 20.81 309.06 C19.01 310.86 17.2 312.66 15.4 314.46 C12.09 317.76 8.78 321.06 5.47 324.35 C4.77 325.06 4.07 325.76 3.34 326.48 C2.19 327.63 1.03 328.78 -0.13 329.92 C-2.23 332.01 -4.16 334.09 -6.06 336.38 C-8.44 339.22 -10.93 341.77 -13.56 344.38 C-14.38 345.19 -15.2 346.01 -16.05 346.85 C-16.92 347.72 -17.79 348.59 -18.69 349.48 C-23.6 354.38 -28.52 359.29 -33.43 364.19 C-36.39 367.15 -39.36 370.1 -42.32 373.06 C-45.2 375.93 -48.08 378.8 -50.96 381.68 C-52.05 382.77 -53.15 383.86 -54.24 384.95 C-55.77 386.47 -57.3 388 -58.82 389.52 C-59.69 390.39 -60.56 391.26 -61.46 392.15 C-63.56 394.38 -63.56 394.38 -65.56 397.38 C-66.22 397.38 -66.88 397.38 -67.56 397.38 C-68.25 398.7 -68.92 400.03 -69.56 401.38 C-70.91 402.99 -70.91 402.99 -72.48 404.56 C-73.06 405.16 -73.65 405.76 -74.26 406.38 C-74.58 406.69 -74.58 406.69 -76.19 408.3 C-76.85 408.97 -77.51 409.63 -78.19 410.32 C-79.6 411.73 -81 413.13 -82.41 414.54 C-84.54 416.66 -86.65 418.8 -88.76 420.94 C-97.42 429.63 -105.8 437.55 -117.12 442.69 C-117.63 442.92 -117.63 442.92 -120.19 444.11 C-127.72 446.93 -134.87 447.74 -142.88 447.69 C-143.8 447.68 -144.72 447.68 -145.66 447.67 C-161.66 447.41 -161.66 447.41 -167.29 443.03 C-169.5 441.46 -170.85 440.65 -173.56 440.38 C-177.75 442.92 -180.86 446.51 -184.12 450.12 C-185.03 451.08 -185.94 452.03 -186.87 453.01 C-189.97 456.29 -193.04 459.58 -195.96 463.02 C-201.96 470.04 -208.51 476.54 -215.01 483.1 C-215.65 483.74 -216.29 484.39 -216.95 485.05 C-220.32 488.45 -223.7 491.85 -227.08 495.24 C-229.87 498.05 -232.66 500.86 -235.44 503.68 C-238.81 507.1 -242.19 510.51 -245.58 513.9 C-246.86 515.2 -248.15 516.5 -249.43 517.8 C-251.21 519.61 -253 521.41 -254.8 523.2 C-255.33 523.74 -255.86 524.28 -256.4 524.84 C-257.89 526.31 -257.89 526.31 -260.56 528.38 C-265.1 527.88 -267.55 524.78 -270.6 521.67 C-271.19 521.07 -271.79 520.47 -272.4 519.86 C-274.36 517.89 -276.32 515.91 -278.27 513.93 C-279.64 512.55 -281 511.18 -282.37 509.8 C-285.98 506.18 -289.58 502.55 -293.17 498.92 C-298.91 493.12 -304.66 487.33 -310.42 481.54 C-312.42 479.52 -314.42 477.5 -316.42 475.48 C-317.66 474.23 -318.9 472.98 -320.14 471.73 C-320.69 471.18 -321.24 470.62 -321.8 470.05 C-325.04 466.79 -328.41 463.76 -331.92 460.8 C-334.26 458.77 -336.4 456.59 -338.56 454.38 C-340.35 452.61 -342.14 450.85 -343.94 449.1 C-349.11 444.02 -354.27 438.93 -359.42 433.83 C-362.53 430.75 -365.64 427.68 -368.77 424.62 C-371.81 421.65 -374.82 418.67 -377.83 415.67 C-378.98 414.54 -380.14 413.4 -381.3 412.28 C-382.91 410.7 -384.5 409.12 -386.1 407.52 C-387.01 406.62 -387.92 405.72 -388.86 404.8 C-389.42 404 -389.98 403.2 -390.56 402.38 C-389.79 399.33 -387.89 397.46 -385.69 395.29 C-385.4 395.01 -385.4 395.01 -383.94 393.55 C-383.32 392.94 -382.69 392.33 -382.05 391.7 C-381.73 391.38 -381.73 391.38 -380.09 389.76 C-378.02 387.71 -375.95 385.67 -373.88 383.62 C-371.82 381.6 -369.76 379.57 -367.71 377.53 C-366.44 376.27 -365.16 375.01 -363.88 373.75 C-360.1 370.02 -356.54 366.15 -353.07 362.12 C-351.2 359.96 -349.26 357.9 -347.25 355.88 C-346.59 355.2 -345.94 354.53 -345.26 353.84 C-343.56 352.38 -343.56 352.38 -341.56 352.38 C-340.89 351.05 -340.22 349.71 -339.56 348.38 C-337.99 346.66 -337.99 346.66 -336.12 344.93 C-335.77 344.6 -335.77 344.6 -334 342.94 C-333.62 342.59 -333.62 342.59 -331.72 340.83 C-330.15 339.33 -328.58 337.83 -327.01 336.33 C-324.53 333.96 -322.04 331.61 -319.53 329.29 C-317.1 327.04 -314.72 324.75 -312.34 322.45 C-311.58 321.76 -310.81 321.07 -310.02 320.36 C-306.57 316.95 -306.57 316.95 -305.56 314.38 C-306.87 311.04 -309.07 308.88 -311.56 306.38 C-322.09 291.13 -324.28 272.16 -321.16 254 C-320.1 249.58 -318.47 245.51 -316.56 241.38 C-316.14 240.41 -315.72 239.44 -315.28 238.45 C-307.11 221.68 -289.92 208.64 -276.81 195.62 C-273.25 192.09 -269.7 188.56 -266.15 185.01 C-264.74 183.62 -263.34 182.23 -261.93 180.83 C-257.56 176.47 -253.36 172.06 -249.33 167.37 C-245.86 163.45 -242.1 159.81 -238.38 156.12 C-237.94 155.7 -237.94 155.7 -235.76 153.53 C-232.11 149.89 -228.45 146.26 -224.8 142.63 C-222.11 139.96 -219.43 137.29 -216.75 134.62 C-215.93 133.82 -215.12 133.01 -214.27 132.17 C-210.75 128.67 -207.31 125.14 -204.06 121.38 C-200.06 116.73 -195.73 112.44 -191.38 108.12 C-190.94 107.7 -190.94 107.7 -188.76 105.53 C-185.11 101.89 -181.45 98.26 -177.8 94.63 C-175.11 91.96 -172.43 89.29 -169.75 86.62 C-168.93 85.82 -168.12 85.01 -167.27 84.17 C-163.86 80.77 -160.51 77.37 -157.38 73.7 C-151.71 67.12 -145.46 61.06 -139.34 54.91 C-138.65 54.22 -137.97 53.54 -137.26 52.83 C-133.65 49.19 -130.03 45.55 -126.4 41.92 C-122.69 38.2 -119 34.47 -115.3 30.73 C-112.43 27.83 -109.55 24.94 -106.66 22.06 C-105.3 20.69 -103.93 19.31 -102.58 17.93 C-74.51 -10.49 -36.22 -25.22 0 0 Z M-65.56 14.38 C-66.53 14.91 -67.51 15.44 -68.51 15.98 C-74.74 19.69 -79.65 24.09 -84.56 29.38 C-85.32 30.13 -86.08 30.88 -86.86 31.66 C-89.5 34.31 -92.04 37.04 -94.57 39.79 C-99.45 45.09 -104.28 50.22 -109.83 54.83 C-112.41 57.13 -114.61 59.73 -116.82 62.38 C-118.96 64.83 -121.26 67.09 -123.56 69.38 C-124.23 70.04 -124.9 70.71 -125.59 71.39 C-127.19 72.98 -128.78 74.56 -130.38 76.14 C-133.59 79.33 -136.8 82.52 -140.01 85.72 C-142.44 88.14 -144.88 90.56 -147.32 92.98 C-150.14 95.78 -152.96 98.58 -155.77 101.39 C-156.65 102.26 -157.53 103.13 -158.44 104.03 C-159.24 104.83 -160.05 105.63 -160.88 106.46 C-161.59 107.17 -162.3 107.88 -163.04 108.61 C-164.56 110.38 -164.56 110.38 -164.56 112.38 C-165.55 112.7 -166.54 113.03 -167.56 113.38 C-167.56 114.03 -167.56 114.69 -167.56 115.38 C-168.12 115.64 -168.68 115.91 -169.25 116.19 C-172.98 118.1 -175.49 121.15 -178.22 124.27 C-185.81 132.91 -194.03 140.91 -202.19 149 C-205.12 151.91 -208.05 154.82 -210.98 157.73 C-211.63 158.38 -212.29 159.02 -212.97 159.69 C-216.11 162.81 -219.13 165.98 -222.02 169.33 C-225.77 173.68 -229.81 177.71 -233.9 181.74 C-235.47 183.3 -237.05 184.86 -238.62 186.42 C-241.08 188.85 -243.53 191.28 -245.99 193.71 C-248.38 196.07 -250.77 198.44 -253.15 200.8 C-253.9 201.53 -254.64 202.27 -255.41 203.02 C-256.08 203.69 -256.76 204.37 -257.46 205.06 C-258.06 205.66 -258.66 206.25 -259.28 206.86 C-260.56 208.38 -260.56 208.38 -260.56 210.38 C-260.84 210.51 -260.84 210.51 -262.25 211.19 C-266.89 213.57 -270.08 217.96 -273.5 221.81 C-276.84 225.58 -280.32 229.12 -283.94 232.62 C-294.73 243.1 -294.73 243.1 -297.56 250.38 C-297.87 251.08 -298.19 251.79 -298.51 252.51 C-303.14 264.79 -301.54 278.05 -296.56 289.85 C-292.38 297.87 -285.8 304.43 -279.43 310.73 C-278.68 311.49 -277.93 312.24 -277.15 313.01 C-275.57 314.59 -273.99 316.16 -272.41 317.73 C-270 320.13 -267.59 322.53 -265.19 324.93 C-263.65 326.47 -262.1 328.01 -260.56 329.55 C-259.85 330.26 -259.13 330.97 -258.4 331.7 C-255.47 334.6 -252.56 337.44 -249.38 340.05 C-246.58 342.36 -244.09 344.78 -241.56 347.38 C-240.27 348.67 -238.97 349.97 -237.68 351.26 C-227.93 361 -218.19 370.75 -208.45 380.49 C-208.11 380.83 -208.11 380.83 -206.4 382.54 C-204.85 384.08 -203.31 385.63 -201.77 387.18 C-199.8 389.13 -197.81 391.05 -195.78 392.94 C-195.09 393.59 -194.4 394.23 -193.69 394.9 C-193.33 395.23 -193.33 395.23 -191.5 396.94 C-186.76 401.36 -182.09 405.81 -177.59 410.48 C-172.44 415.82 -167.32 420.15 -160.56 423.38 C-159.89 423.71 -159.23 424.05 -158.54 424.39 C-149.09 428.36 -136.98 427.67 -127.5 424.25 C-116.87 419.88 -109.16 411.26 -101.21 403.26 C-100.03 402.07 -98.85 400.89 -97.67 399.71 C-95.2 397.24 -92.73 394.77 -90.27 392.29 C-87.13 389.14 -83.99 385.99 -80.85 382.84 C-78.41 380.4 -75.97 377.96 -73.53 375.52 C-72.38 374.36 -71.22 373.2 -70.06 372.04 C-64.51 366.49 -59 360.95 -53.96 354.93 C-51.75 352.46 -49.11 350.49 -46.56 348.38 C-45.51 347.2 -44.47 346 -43.45 344.8 C-39.31 340.01 -34.85 335.58 -30.35 331.13 C-28.59 329.39 -26.84 327.65 -25.08 325.91 C-22.34 323.19 -19.59 320.47 -16.84 317.75 C-14.17 315.11 -11.51 312.47 -8.85 309.82 C-8.43 309.41 -8.43 309.41 -6.33 307.34 C-5.57 306.59 -4.81 305.83 -4.03 305.06 C-3.7 304.72 -3.7 304.72 -2 303.04 C-0.56 301.38 -0.56 301.38 -0.56 299.38 C0.77 298.71 2.1 298.04 3.44 297.38 C5.02 295.77 5.02 295.77 6.59 293.86 C10.82 288.86 15.41 284.29 20.06 279.69 C20.52 279.24 20.52 279.24 22.81 276.95 C26.17 273.61 29.53 270.27 32.9 266.93 C36.2 263.64 39.51 260.35 42.81 257.06 C43.67 256.21 44.53 255.36 45.42 254.48 C49.76 250.16 53.92 245.76 57.92 241.12 C59.98 238.75 62.19 236.56 64.44 234.38 C65.69 233.14 66.94 231.91 68.18 230.68 C68.88 229.99 69.57 229.31 70.29 228.6 C73.45 225.48 76.6 222.35 79.76 219.22 C81.41 217.58 83.07 215.94 84.73 214.31 C107.56 191.82 107.56 191.82 111.38 180.06 C111.76 178.93 112.14 177.8 112.53 176.64 C116.18 163.55 115.67 149.69 108.93 137.69 C102.45 128.04 94.04 119.89 85.88 111.69 C85.52 111.33 85.52 111.33 83.73 109.53 C83.38 109.18 83.38 109.18 81.62 107.43 C81.31 107.12 81.31 107.12 79.76 105.57 C77.78 103.7 75.76 101.92 73.7 100.14 C69.28 96.29 65.15 92.2 61.03 88.03 C60.26 87.25 59.49 86.48 58.69 85.68 C56.25 83.23 53.81 80.77 51.38 78.31 C48.16 75.07 44.94 71.83 41.71 68.59 C40.99 67.86 40.26 67.12 39.51 66.36 C35.8 62.63 32.04 59.07 27.97 55.73 C26.29 54.25 24.88 52.65 23.44 50.94 C15.83 42 7.25 33.45 -1.76 25.91 C-3.08 24.78 -4.36 23.6 -5.62 22.4 C-18.05 10.59 -30.59 8.78 -47.05 9.04 C-54.03 9.32 -59.41 11 -65.56 14.38 Z " fill="#031A3D" transform="translate(428.5625,40.625)"/>
<path d="M0 0 C1.1 0 2.2 0.01 3.33 0.02 C12.33 0.21 19.6 1.64 27.81 5.5 C28.82 5.97 29.84 6.44 30.88 6.92 C42.71 12.91 51.3 21.65 56.25 34.06 C59.32 43.74 59.32 43.74 57.81 48.5 C55.17 52.21 52.04 55.31 48.81 58.5 C47.67 59.8 46.54 61.11 45.44 62.44 C44.57 63.47 43.7 64.49 42.81 65.5 C42.42 66.06 42.02 66.61 41.61 67.18 C38.71 69.31 35.95 68.74 32.44 68.62 C25.15 68.41 25.15 68.41 22.11 69.22 C19.81 69.5 19.81 69.5 17.63 68.05 C16.89 67.31 16.14 66.57 15.38 65.81 C14.52 64.99 13.66 64.17 12.78 63.32 C12.31 62.87 11.84 62.42 11.36 61.95 C8.48 59.25 5.45 56.73 2.44 54.19 C0.71 52.73 -1.01 51.27 -2.71 49.79 C-3.98 48.68 -5.29 47.61 -6.6 46.54 C-8.84 43.66 -8.46 41.72 -8.19 38.12 C-8.06 33.84 -8.04 31.82 -9.88 27.88 C-12.18 25.5 -14.24 23.98 -17.19 22.5 C-17.85 22.17 -18.51 21.84 -19.19 21.5 C-25.3 20.99 -28.33 21.41 -33.19 25.5 C-35.78 28.21 -37.12 29.65 -37.43 33.44 C-37.39 34.49 -37.34 35.54 -37.29 36.62 C-37.65 43.86 -40.43 47.01 -45.54 51.91 C-46.52 52.79 -47.5 53.66 -48.5 54.56 C-49.48 55.48 -50.45 56.4 -51.42 57.32 C-53.21 59 -55.01 60.67 -56.82 62.32 C-58.39 63.76 -59.91 65.26 -61.38 66.8 C-61.97 67.36 -62.57 67.92 -63.19 68.5 C-65.13 68.27 -65.13 68.27 -67.19 67.5 C-72.17 67 -76.05 66.96 -80.62 69.12 C-84.05 72.3 -85.95 74.96 -86.4 79.71 C-86.46 83.15 -86.39 85.92 -85.25 89.19 C-85.19 91.5 -85.19 91.5 -86.43 92.85 C-87.65 93.87 -88.9 94.86 -90.15 95.83 C-92.27 97.57 -93.97 99.41 -95.75 101.5 C-96.33 102.17 -96.92 102.84 -97.52 103.53 C-98.57 104.77 -99.6 106.04 -100.57 107.34 C-102.04 109.12 -103.19 110.34 -105.19 111.5 C-107.97 111.71 -110.64 111.56 -113.43 111.4 C-117.94 111.56 -120.93 113.48 -124.19 116.5 C-126.96 120.4 -127.7 123.86 -127.57 128.55 C-127.19 130.5 -127.19 130.5 -125.06 133.62 C-123.19 136.5 -123.19 136.5 -123.62 139.25 C-125.38 142.91 -127.18 146.54 -129.07 150.13 C-130.19 152.5 -130.19 152.5 -130.55 154.77 C-130.76 155.34 -130.97 155.91 -131.19 156.5 C-133.26 156.97 -133.26 156.97 -135.88 157 C-140.74 157.33 -143.5 158.08 -147.19 161.5 C-150.49 166.25 -152.12 170.67 -151.19 176.5 C-148.97 181.41 -146.35 185.5 -141.19 187.5 C-136.4 188.75 -132.47 189 -127.88 187 C-123.85 184.64 -121.55 181.99 -120.19 177.5 C-119.4 172.31 -119.52 168.69 -122.12 164.06 C-122.81 163.22 -123.49 162.37 -124.19 161.5 C-125.53 157.47 -124.35 155.99 -122.58 152.29 C-117.37 142.13 -117.37 142.13 -113.54 140.08 C-110.94 139.69 -110.94 139.69 -108.39 139.62 C-106.19 139.5 -106.19 139.5 -103.62 137.25 C-101.19 135.5 -101.19 135.5 -97.32 136.11 C-91.29 137.61 -85.5 139.78 -79.69 141.94 C-77.53 142.73 -75.38 143.52 -73.22 144.31 C-72.2 144.69 -71.18 145.07 -70.12 145.46 C-67.44 146.41 -64.75 147.17 -62 147.93 C-58.38 149.12 -58.38 149.12 -56.81 152.17 C-56.33 160.22 -56.33 160.22 -58.48 163.42 C-60.31 165 -60.31 165 -62.55 166.6 C-65.81 168.95 -68.64 171.62 -71.56 174.38 C-72.69 175.42 -73.82 176.47 -74.95 177.52 C-75.5 178.02 -76.05 178.53 -76.62 179.05 C-79.62 181.82 -82.65 184.54 -85.7 187.25 C-87.54 188.91 -89.36 190.59 -91.18 192.28 C-91.68 192.74 -92.18 193.21 -92.7 193.68 C-94.11 195 -95.53 196.31 -96.94 197.63 C-99.19 199.5 -99.19 199.5 -101.19 199.5 C-100.19 202.5 -100.19 202.5 -97.19 204.5 C-92.73 204.28 -90.84 202.57 -87.88 199.38 C-85.07 196.44 -82.28 193.63 -79.19 191 C-75.4 187.75 -71.92 184.25 -68.42 180.7 C-65.71 178.03 -62.87 175.55 -59.98 173.07 C-58.34 171.63 -56.82 170.14 -55.31 168.56 C-53.19 166.5 -53.19 166.5 -51.19 166.5 C-52.27 173.08 -54.37 178.94 -56.94 185.06 C-57.66 186.83 -58.39 188.61 -59.11 190.38 C-59.29 190.81 -59.29 190.81 -60.19 193.01 C-61.58 196.49 -62.89 199.99 -64.19 203.5 C-64.42 204.12 -64.66 204.75 -64.91 205.39 C-66.36 209.2 -67.7 213.03 -68.98 216.9 C-69.63 218.75 -70.29 220.59 -70.94 222.44 C-71.21 223.32 -71.49 224.2 -71.77 225.12 C-72.68 227.62 -73.44 229.48 -75.19 231.5 C-77.8 232.29 -80 232.44 -82.72 232.39 C-87.63 232.61 -91.33 235.48 -94.57 239 C-98.03 244.03 -97.89 249.61 -97.19 255.5 C-95.37 261.4 -90.95 264.83 -86.19 268.5 C-82.2 270.49 -77.52 270.02 -73.19 269.5 C-68.02 267.44 -64.24 264.14 -61.19 259.5 C-60.19 256.5 -60.19 256.5 -60.58 253.31 C-61.03 249.2 -61.41 245.5 -60.19 241.5 C-56.73 237.46 -52.73 234.82 -48.3 231.94 C-44.54 229.38 -41.11 226.42 -37.62 223.5 C-28.67 216.06 -28.67 216.06 -25.19 214.5 C-24.2 215.16 -23.21 215.82 -22.19 216.5 C-21.68 216.62 -21.68 216.62 -19.12 217.23 C-16.19 218.5 -16.19 218.5 -14.96 221.27 C-14.74 222.42 -14.52 223.57 -14.29 224.75 C-14.04 226 -13.79 227.25 -13.53 228.53 C-13.29 229.85 -13.05 231.18 -12.81 232.5 C-12.55 233.82 -12.29 235.15 -12.03 236.47 C-10.19 245.89 -10.19 245.89 -10.19 248.5 C-7.05 247.86 -7.05 247.86 -4.19 245.5 C-4.14 241.42 -5.27 237.61 -6.31 233.69 C-6.84 231.54 -7.36 229.38 -7.88 227.23 C-8.13 226.28 -8.38 225.32 -8.63 224.34 C-9.23 221.28 -9.45 218.61 -9.19 215.5 C-6.81 213.38 -6.81 213.38 -4.19 211.5 C-2.35 208.83 -2.18 207.38 -2.04 204.08 C-1.19 200.5 -1.19 200.5 1.56 198.57 C2.78 198.07 3.99 197.57 5.25 197.06 C6.61 196.49 7.97 195.92 9.33 195.35 C10.06 195.05 10.78 194.76 11.53 194.46 C13.93 193.45 16.28 192.36 18.64 191.25 C19.04 191.06 19.04 191.06 21.06 190.11 C22.62 189.38 24.18 188.65 25.73 187.9 C28.9 186.46 31.09 185.47 34.61 185.62 C36.88 186.53 38.55 187.58 40.5 189.06 C45.22 192.14 49.32 192.31 54.81 191.5 C61.59 189.5 64.76 186.22 68.12 180.12 C69.77 173.85 69.28 168.93 66.14 163.32 C63.89 160.23 61.27 158.12 57.81 156.5 C56.4 156.35 54.98 156.23 53.56 156.12 C51.53 155.7 51.53 155.7 49.81 154.5 C48.31 150.3 47.76 146 47.15 141.61 C46.62 138.3 45.74 135.11 44.88 131.88 C44.17 129.09 43.49 126.3 42.81 123.5 C42.6 122.61 42.38 121.73 42.16 120.81 C41.49 117.96 40.87 115.11 40.25 112.25 C40.14 111.8 40.14 111.8 39.59 109.51 C39.09 107.09 38.71 104.97 38.81 102.5 C40.97 99.83 40.97 99.83 43.81 98.5 C47.2 98.94 49.68 100.48 52.55 102.27 C53.45 102.83 54.36 103.39 55.29 103.96 C56.22 104.55 57.16 105.14 58.12 105.75 C59.05 106.32 59.97 106.9 60.93 107.49 C75.45 116.55 75.45 116.55 77.19 121.12 C77.39 122.24 77.6 123.35 77.81 124.5 C78.14 125.49 78.47 126.48 78.81 127.5 C82.47 128.72 84.98 128.97 88.81 128.5 C93.45 123.01 94.25 118.43 93.81 111.5 C90.11 109.03 87.1 109.15 82.81 109.5 C82.2 109.72 81.59 109.93 80.96 110.16 C78.02 110.63 76.9 109.74 74.4 108.18 C73.55 107.67 72.71 107.15 71.84 106.62 C71.4 106.34 71.4 106.34 69.19 104.94 C68.34 104.41 67.48 103.88 66.61 103.34 C64.88 102.27 63.16 101.2 61.44 100.11 C59.65 99.01 57.83 97.97 55.97 96.99 C49.09 93.26 49.09 93.26 47.65 89.28 C47.68 88.2 47.72 87.12 47.75 86 C47.76 84.92 47.77 83.83 47.78 82.72 C47.78 82.19 47.78 82.19 47.81 79.5 C47.68 78.99 47.68 78.99 47.04 76.4 C46.81 73.5 46.81 73.5 48.66 71.01 C49.09 70.61 49.09 70.61 51.31 68.62 C55.24 64.98 58.82 61.31 62.24 57.19 C64.51 54.75 66.49 52.78 69.82 52.07 C79.69 52.05 87.49 56.12 94.81 62.5 C95.54 63.13 96.27 63.75 97.03 64.39 C108.63 75.09 115.03 89.49 115.97 105.18 C116.5 122.89 109.15 137.58 97.19 150.29 C94.43 154.02 93.96 156.44 93.38 161 C90.76 177.78 82.17 192.34 68.94 203.01 C63.56 206.9 57.71 209.44 51.57 211.88 C45.63 214.31 41.1 216.83 38.2 222.85 C37.78 224.07 37.37 225.3 36.94 226.56 C34.24 233.98 30.58 240.17 25.81 246.5 C25.26 247.24 24.7 247.98 24.13 248.74 C14.83 260.2 0.13 268.34 -14.56 270.06 C-19.73 271.16 -21.8 274.07 -25.04 278.05 C-34.87 289.23 -48.81 294.71 -63.35 295.72 C-79.76 296.19 -95.04 290.28 -107.05 279.12 C-114.22 271.88 -119.75 261.63 -121.19 251.5 C-121.02 249.16 -120.79 246.83 -120.5 244.5 C-120.43 241.1 -120.43 241.1 -121.19 238.5 C-124.51 237.55 -127.24 237.89 -130.67 238.22 C-140.82 239.03 -150.3 232.86 -158.38 227.31 C-169.87 215.82 -176.14 202.38 -176.62 186.12 C-176.25 170.4 -170.19 158.62 -159.92 147.12 C-158.19 145.5 -158.19 145.5 -156.19 145.5 C-154.5 142.72 -153.6 139.8 -152.71 136.68 C-147.38 118.67 -141.31 106.29 -125.03 96.02 C-122.3 94.56 -119.91 93.84 -116.94 93.06 C-113.35 91.77 -111.88 90.33 -110.18 87.02 C-108.61 83.53 -107.24 79.97 -105.91 76.39 C-101.79 65.58 -93.91 56.84 -83.6 51.55 C-81.86 50.79 -80.09 50.11 -78.31 49.48 C-69.59 46.33 -64.89 41.72 -59.19 34.5 C-58.54 33.69 -57.89 32.87 -57.22 32.03 C-55.53 29.87 -53.86 27.68 -52.19 25.5 C-39.58 9.12 -20.54 -0.12 0 0 Z " fill="#012E6D" transform="translate(367.1875,109.5)"/>
<path d="M0 0 C3.88 2.59 6.7 5.65 8.81 9.88 C8.75 10.3 8.75 10.3 8.42 12.46 C7.85 16.87 7.38 20.83 10.05 24.65 C13.4 28.3 17.21 31.42 21.08 34.49 C23.25 36.23 25.31 38.07 27.38 39.94 C27.68 40.2 27.68 40.2 29.21 41.5 C30.67 42.76 32.09 44.06 33.5 45.38 C35.81 46.88 35.81 46.88 38.12 46.48 C39.01 46.28 39.9 46.08 40.81 45.88 C47.5 45.36 52.99 45.38 58.81 48.88 C61.63 51.56 63.57 54.14 64.81 57.88 C64.73 61.24 64.55 64.58 64.36 67.94 C64.51 68.91 64.66 69.88 64.81 70.88 C66.45 71.61 68.13 72.26 69.81 72.88 C71.77 74.01 73.71 75.18 75.63 76.39 C76.72 77.06 77.82 77.74 78.94 78.43 C80.67 79.5 82.39 80.57 84.1 81.65 C85.77 82.7 87.45 83.73 89.13 84.76 C89.63 85.07 89.63 85.07 92.14 86.64 C94.81 87.88 94.81 87.88 97.04 87.58 C97.63 87.35 98.21 87.12 98.81 86.88 C102.57 86.49 105.78 86.46 109.31 87.88 C111.22 90.42 111.36 92.53 111.21 95.68 C110.36 100.38 108.18 104.51 104.81 107.88 C100.58 108.43 98.56 108.42 95.06 105.88 C92.81 102.88 92.81 102.88 91.78 99.07 C89.73 93.4 85.15 91.42 80.06 88.69 C78.3 87.7 76.53 86.7 74.77 85.71 C73.92 85.24 73.07 84.77 72.2 84.29 C69.97 82.97 67.97 81.53 65.92 79.95 C62.81 77.88 62.81 77.88 60.81 78.12 C58.81 78.88 58.81 78.88 55.81 80.88 C55.85 83.16 55.85 83.16 56.44 86.02 C56.65 87.08 56.86 88.14 57.07 89.23 C57.32 90.37 57.56 91.51 57.81 92.69 C58.05 93.85 58.28 95.01 58.53 96.21 C60.26 104.61 62.17 112.97 64.29 121.29 C65.13 124.64 65.82 127.44 65.73 130.92 C65.76 131.57 65.78 132.21 65.81 132.88 C67.71 133.11 69.61 133.33 71.52 133.46 C76.5 134.36 80.27 137.77 83.2 141.77 C85.77 146.36 86.79 150.67 85.81 155.88 C83.87 161.97 80.22 166.45 74.81 169.88 C69.7 171.57 63.49 172.16 58.56 169.79 C57.24 168.93 55.95 168.02 54.7 167.07 C52.28 165.54 50.68 165.14 47.81 164.88 C44.63 165.94 44.63 165.94 41.09 167.59 C40.46 167.87 39.83 168.16 39.18 168.46 C37.18 169.38 35.18 170.31 33.19 171.25 C31.18 172.18 29.18 173.1 27.18 174.02 C25.36 174.86 23.55 175.71 21.74 176.55 C18.81 177.88 18.81 177.88 15.81 178.88 C15.26 180.73 15.26 180.73 14.94 183.06 C14.01 187.98 12.38 190.4 8.81 193.88 C8.15 193.88 7.49 193.88 6.81 193.88 C7.22 196.58 7.22 196.58 8.11 200.33 C8.41 201.69 8.71 203.04 9.01 204.39 C9.5 206.54 10 208.69 10.52 210.83 C11.01 212.89 11.47 214.95 11.92 217.02 C12.06 217.64 12.06 217.64 12.8 220.78 C12.8 221.8 12.81 222.82 12.81 223.88 C10.44 225.85 8.94 226.88 5.81 226.88 C4.85 224.12 4.85 224.12 3.88 220.31 C3.7 219.65 3.52 218.98 3.34 218.29 C2.43 214.75 1.68 211.23 1.13 207.61 C1.08 207.27 1.08 207.27 0.8 205.55 C0.51 203.65 0.26 201.74 0.01 199.82 C-0.38 198.85 -0.78 197.88 -1.19 196.88 C-4.71 195.42 -7.39 194.88 -11.19 194.88 C-13.34 196.38 -15.35 197.91 -17.38 199.56 C-17.68 199.8 -17.68 199.8 -19.21 201.03 C-21.21 202.64 -23.2 204.25 -25.19 205.88 C-25.55 206.17 -25.55 206.17 -27.38 207.66 C-28.11 208.25 -28.84 208.85 -29.6 209.46 C-29.96 209.76 -29.96 209.76 -31.79 211.25 C-33.21 212.4 -34.62 213.56 -36.03 214.72 C-36.68 215.25 -37.32 215.78 -37.98 216.32 C-38.56 216.79 -39.13 217.26 -39.71 217.74 C-41.19 218.88 -41.19 218.88 -43.19 219.88 C-43.26 222.3 -43.23 224.64 -43.12 227.06 C-42.87 233.48 -43.4 237.85 -47.87 242.7 C-48.45 243.17 -49.03 243.64 -49.62 244.12 C-50.2 244.6 -50.78 245.08 -51.37 245.58 C-56.76 249.43 -61.68 249.63 -68.19 248.88 C-71.5 247.25 -71.5 247.25 -74.19 244.88 C-74.72 244.4 -75.26 243.93 -75.81 243.45 C-79.72 239.82 -81.74 236.69 -82.59 231.3 C-82.82 224.92 -81.87 220.86 -77.95 215.76 C-75.31 212.94 -72.96 210.89 -69.19 209.88 C-66.55 209.96 -64.03 210.17 -61.42 210.61 C-60.68 210.37 -59.95 210.13 -59.19 209.88 C-58.17 207.82 -57.58 205.76 -56.96 203.56 C-56.17 200.8 -55.19 198.19 -54.14 195.53 C-53.77 194.6 -53.41 193.67 -53.03 192.72 C-52.84 192.24 -52.84 192.24 -51.88 189.81 C-48.49 181.21 -45.13 172.6 -41.95 163.91 C-41.07 161.55 -40.14 159.21 -39.21 156.87 C-38.57 155.23 -37.94 153.58 -37.31 151.94 C-36.98 151.13 -36.65 150.32 -36.31 149.49 C-35.51 147.35 -35.51 147.35 -35.19 144.88 C-38.19 146.78 -40.64 149.42 -43.19 151.88 C-44.41 153.01 -45.64 154.14 -46.87 155.28 C-48.12 156.45 -49.37 157.63 -50.62 158.81 C-51.3 159.44 -51.98 160.08 -52.67 160.73 C-56.42 164.25 -60.14 167.79 -63.83 171.37 C-64.21 171.74 -64.21 171.74 -66.13 173.59 C-67.6 175 -69.06 176.43 -70.52 177.86 C-71.18 178.5 -71.85 179.14 -72.54 179.8 C-72.84 180.09 -72.84 180.09 -74.31 181.53 C-76.61 183.18 -78.38 183.61 -81.19 183.88 C-83.5 182.62 -83.5 182.62 -85.19 180.88 C-85.19 177.88 -85.19 177.88 -83.79 176.37 C-83.14 175.83 -82.48 175.3 -81.81 174.75 C-81.08 174.13 -80.34 173.52 -79.59 172.88 C-78.79 172.22 -78 171.56 -77.19 170.88 C-75.6 169.47 -74.01 168.05 -72.44 166.62 C-71.6 165.87 -70.76 165.11 -69.89 164.33 C-66.98 161.69 -64.08 159.03 -61.19 156.38 C-59.68 154.99 -58.17 153.61 -56.66 152.23 C-55.22 150.9 -53.78 149.57 -52.34 148.25 C-51.47 147.44 -50.59 146.64 -49.69 145.81 C-48.91 145.1 -48.14 144.39 -47.34 143.65 C-45.19 141.88 -45.19 141.88 -42.89 140.77 C-42.33 140.47 -41.77 140.18 -41.19 139.88 C-41.44 137.69 -41.44 137.69 -42.19 134.88 C-42.06 133.64 -41.94 132.4 -41.81 131.12 C-41.94 130.05 -42.06 128.98 -42.19 127.88 C-43.75 127.63 -45.32 127.41 -46.9 127.26 C-51.82 126.44 -56.44 124.3 -61.06 122.5 C-65.1 120.95 -69.14 119.4 -73.19 117.88 C-74.05 117.55 -74.92 117.22 -75.81 116.88 C-76.6 116.6 -77.38 116.32 -78.2 116.02 C-78.87 115.78 -79.55 115.53 -80.25 115.27 C-82.58 114.79 -83.97 115.08 -86.19 115.88 C-86.83 116.39 -87.48 116.9 -88.14 117.43 C-90.63 119.19 -91.94 119.04 -94.94 119.06 C-97.87 119.54 -99.57 120.11 -101.46 122.46 C-102.75 124.51 -103.86 126.58 -104.94 128.75 C-105.3 129.47 -105.66 130.19 -106.03 130.93 C-108.39 136.17 -108.39 136.17 -107.49 139.25 C-107.06 139.79 -106.63 140.32 -106.19 140.88 C-103.07 144.95 -102.6 148.3 -102.78 153.31 C-103.59 158.43 -105.93 162.09 -109.98 165.29 C-114.42 167.89 -118.11 168.29 -123.15 167.42 C-129.17 165.81 -132.1 162.01 -135.44 157 C-137.09 152.32 -136.58 148.21 -134.62 143.75 C-132.32 139.63 -129.65 136.61 -125.19 134.88 C-122.46 134.78 -119.93 134.92 -117.23 135.29 C-116.55 135.15 -115.88 135.01 -115.19 134.88 C-114.6 132.25 -114.6 132.25 -114.19 128.88 C-112.67 125.73 -110.98 122.72 -109.27 119.68 C-108.19 116.88 -108.19 116.88 -108.94 114.62 C-109.35 114.04 -109.76 113.47 -110.19 112.88 C-112.63 109.08 -112.83 105.25 -112.19 100.88 C-110.04 95.58 -107.45 92.59 -102.52 89.7 C-99.72 88.71 -97.81 88.94 -94.88 89.25 C-90.91 89.46 -89.53 89.13 -86.29 86.73 C-83.38 83.95 -80.78 80.94 -78.19 77.88 C-76.83 76.31 -75.48 74.75 -74.12 73.19 C-73.6 72.54 -73.07 71.9 -72.53 71.24 C-72.31 71.01 -72.31 71.01 -71.19 69.88 C-70.53 69.88 -69.87 69.88 -69.19 69.88 C-69.48 69.24 -69.76 68.6 -70.06 67.94 C-72 62.67 -71.89 57.83 -70 52.56 C-67.63 49.05 -64.97 46.77 -61.19 44.88 C-59.56 44.78 -57.94 44.75 -56.31 44.75 C-55.45 44.75 -54.59 44.74 -53.7 44.74 C-51.19 44.88 -51.19 44.88 -49.18 45.7 C-48.85 45.72 -48.85 45.72 -47.19 45.88 C-45.05 44 -45.05 44 -43.77 42.58 C-41.82 40.48 -39.71 38.6 -37.58 36.69 C-35.86 35.08 -34.15 33.48 -32.44 31.88 C-31.56 31.1 -30.69 30.33 -29.79 29.53 C-24.91 24.88 -22.69 21.89 -22.32 15.04 C-22.35 13.98 -22.37 12.92 -22.4 11.82 C-22.09 7.51 -20.03 5.35 -17.07 2.36 C-11.73 -1.85 -6.32 -2.23 0 0 Z " fill="#0CF3F8" transform="translate(351.1875,131.125)"/>
<path d="M0 0 C0.94 -0 1.88 -0.01 2.85 -0.01 C15.93 0.09 27.35 4.48 36.72 13.74 C38.24 15.31 39.75 16.89 41.25 18.48 C43.35 20.69 45.42 22.68 47.75 24.62 C51.89 28.15 55.71 31.98 59.56 35.81 C59.88 36.13 59.88 36.13 61.48 37.72 C64.42 40.67 67.25 43.63 69.9 46.84 C71.98 49.33 74.17 51.45 76.65 53.55 C80.84 57.18 84.76 61.02 88.66 64.97 C89.01 65.32 89.01 65.32 90.78 67.11 C93.75 70.09 96.71 73.08 99.67 76.07 C101.85 78.27 104.04 80.46 106.22 82.66 C106.87 83.32 107.53 83.98 108.2 84.67 C112.04 88.52 116 92.17 120.11 95.72 C136.07 109.62 154.12 125.56 156.27 147.79 C156.79 165.78 150.75 179.14 138.94 192.31 C138.45 192.87 137.96 193.43 137.45 194 C135.91 195.73 134.34 197.43 132.75 199.12 C132.26 199.67 131.78 200.22 131.28 200.78 C129.83 202.27 129.83 202.27 126.94 204.31 C123.51 203.45 123.51 203.45 120.94 202.31 C121.27 203.3 121.6 204.29 121.94 205.31 C121.32 205.13 120.7 204.94 120.06 204.75 C119.71 204.68 119.71 204.68 117.94 204.31 C117.83 204.95 117.72 205.59 117.61 206.24 C117.39 206.93 117.17 207.61 116.94 208.31 C114.76 208.89 114.76 208.89 112.06 209 C109.03 209.15 106.84 209.34 103.94 210.31 C102.95 209.98 101.96 209.65 100.94 209.31 C100.88 211.31 100.9 213.31 100.94 215.31 C100.74 217.11 100.48 218.9 100.19 220.69 C100.12 221.12 100.12 221.12 99.77 223.34 C99.49 223.99 99.22 224.64 98.94 225.31 C97.62 225.31 96.3 225.31 94.94 225.31 C94.61 225.97 94.28 226.63 93.94 227.31 C92.62 227.31 91.3 227.31 89.94 227.31 C88.84 230.6 88.97 232.05 89.94 235.31 C90.6 235.31 91.26 235.31 91.94 235.31 C91.94 236.3 91.94 237.29 91.94 238.31 C91.52 238.38 91.52 238.38 89.44 238.75 C88.61 238.94 87.79 239.12 86.94 239.31 C86.94 240.63 86.94 241.95 86.94 243.31 C81.69 243.81 81.69 243.81 78.94 243.31 C78.61 242.65 78.28 241.99 77.94 241.31 C76.62 241.31 75.3 241.31 73.94 241.31 C73.61 240.65 73.28 239.99 72.94 239.31 C72.75 242.19 72.75 242.19 72.94 245.31 C73.6 245.31 74.26 245.31 74.94 245.31 C75.88 247.75 75.88 247.75 75.94 250.31 C73.62 251.25 73.62 251.25 70.94 251.31 C68.38 248.76 68.1 246.52 67.77 242.99 C68.04 238.76 69.9 235.39 71.67 231.58 C73.48 226.92 73.93 222.3 74.38 217.34 C74.97 214.13 75.71 212.65 77.94 210.31 C78.27 210.17 78.27 210.17 79.94 209.44 C82.86 207.79 83.49 205.27 84.94 202.31 C85.93 201.98 86.92 201.65 87.94 201.31 C88.28 199.65 88.61 197.98 88.94 196.31 C89.58 195.36 90.22 194.41 90.88 193.44 C97.58 182.25 95.91 164 93.04 151.9 C89.68 140.94 84.14 132.24 75.94 124.31 C75.33 123.72 74.72 123.12 74.09 122.51 C67.37 116.36 59.49 112.7 50.3 112.85 C41.95 114.48 34.39 125.89 29.43 132.24 C28.19 133.75 28.19 133.75 25.94 135.31 C23.07 133.3 21.53 131.31 19.75 128.31 C19.94 126.31 19.94 126.31 22.44 124.06 C22.99 123.64 23.55 123.23 24.12 122.8 C26.86 120.56 29.05 117.92 31.32 115.21 C32.94 113.31 32.94 113.31 35.38 110.88 C37.75 106.98 37.61 103.75 36.94 99.31 C33.86 86.84 26.67 77.26 15.94 70.31 C4.47 64.1 -6.2 60.73 -19.25 60.81 C-19.8 60.81 -19.8 60.81 -22.58 60.83 C-35.1 61.1 -44.42 64.3 -54.97 71.15 C-57.78 72.71 -59.92 72.86 -63.06 72.31 C-63.39 72.15 -63.39 72.15 -65.06 71.31 C-65.02 72.1 -64.98 72.88 -64.94 73.69 C-64.98 74.55 -65.02 75.42 -65.06 76.31 C-67 76.94 -67 76.94 -69.06 77.31 C-69.23 77.81 -69.23 77.81 -70.06 80.31 C-73.31 79.27 -74.12 78.22 -76.06 75.31 C-78.19 74 -78.19 74 -80.06 73.31 C-80.06 73.97 -80.06 74.63 -80.06 75.31 C-80.06 78.31 -80.06 78.31 -81.38 80 C-83.06 81.31 -83.06 81.31 -86.06 81.31 C-85.73 82.3 -85.4 83.29 -85.06 84.31 C-85.72 85.3 -86.38 86.29 -87.06 87.31 C-87.08 90.2 -86.87 93.03 -86.64 95.91 C-86.78 96.71 -86.92 97.5 -87.06 98.31 C-89.56 99.57 -89.56 99.57 -92.06 99.31 C-92.48 96.49 -92.48 96.49 -92.25 92.62 C-91.8 84.3 -91.8 84.3 -94.06 81.31 C-94.23 81.64 -94.23 81.64 -95.06 83.31 C-95.72 83.31 -96.38 83.31 -97.06 83.31 C-97.39 84.3 -97.72 85.29 -98.06 86.31 C-98.39 87.3 -98.72 88.29 -99.06 89.31 C-99.72 89.31 -100.38 89.31 -101.06 89.31 C-102.35 84.88 -102.35 84.88 -101.06 82.31 C-100.4 82.31 -99.74 82.31 -99.06 82.31 C-99.06 81.65 -99.06 80.99 -99.06 80.31 C-98.73 80.15 -98.73 80.15 -97.06 79.31 C-96.84 78.93 -96.84 78.93 -95.69 77 C-94.06 74.31 -92.27 72.52 -90.06 70.31 C-89.6 69.54 -89.14 68.76 -88.67 67.96 C-84.63 61.3 -78.9 56.04 -73 51.06 C-71 49.26 -69.3 47.36 -67.56 45.31 C-65.26 42.59 -62.91 40.23 -60.19 37.94 C-56.1 34.48 -52.62 30.6 -49.09 26.59 C-46.84 24.06 -44.49 21.68 -42.06 19.31 C-41.54 18.72 -41.02 18.13 -40.48 17.52 C-29.79 5.86 -15.66 -0.27 0 0 Z " fill="#0E8BF9" transform="translate(387.0625,49.6875)"/>
<path d="M0 0 C0.99 0 1.98 0 3 0 C4.37 2.61 5.49 5.08 6.56 7.81 C6.72 8.2 6.72 8.2 7.5 10.18 C14.77 29.05 13.2 46.52 5.43 64.76 C1.73 72.72 -2.77 78.85 -9 85 C-9.83 85.82 -10.65 86.65 -11.5 87.5 C-12.33 88.32 -13.15 89.15 -14 90 C-15.3 91.45 -16.59 92.91 -17.88 94.37 C-22.98 100.05 -28.32 105.44 -33.74 110.81 C-35.49 112.55 -37.24 114.3 -38.99 116.04 C-42.7 119.74 -46.41 123.43 -50.12 127.12 C-54.44 131.42 -58.76 135.71 -63.07 140.01 C-64.78 141.72 -66.49 143.42 -68.2 145.12 C-73.08 149.97 -77.84 154.85 -82.31 160.08 C-85.71 163.94 -89.4 167.52 -93.04 171.14 C-93.88 171.98 -94.73 172.82 -95.6 173.69 C-98.27 176.36 -100.95 179.02 -103.62 181.69 C-105.43 183.49 -107.23 185.29 -109.04 187.09 C-112.35 190.39 -115.65 193.68 -118.96 196.98 C-119.67 197.68 -120.37 198.38 -121.1 199.11 C-122.25 200.25 -123.41 201.4 -124.57 202.55 C-126.67 204.63 -128.6 206.72 -130.5 209 C-132.87 211.85 -135.36 214.4 -138 217 C-138.82 217.82 -139.64 218.64 -140.49 219.48 C-141.36 220.35 -142.23 221.22 -143.13 222.11 C-148.04 227.01 -152.95 231.91 -157.86 236.81 C-160.83 239.77 -163.79 242.73 -166.76 245.69 C-169.64 248.56 -172.52 251.43 -175.4 254.3 C-176.49 255.39 -177.59 256.49 -178.68 257.58 C-180.21 259.1 -181.74 260.62 -183.26 262.15 C-184.13 263.02 -185 263.88 -185.89 264.77 C-188 267 -188 267 -190 270 C-190.66 270 -191.32 270 -192 270 C-192.69 271.32 -193.35 272.66 -194 274 C-195.35 275.61 -195.35 275.61 -196.91 277.19 C-197.5 277.79 -198.09 278.38 -198.7 279 C-199.01 279.32 -199.01 279.32 -200.62 280.93 C-201.29 281.59 -201.95 282.26 -202.63 282.94 C-204.03 284.35 -205.44 285.76 -206.85 287.16 C-208.97 289.29 -211.09 291.42 -213.2 293.56 C-221.86 302.26 -230.24 310.18 -241.56 315.31 C-242.07 315.55 -242.07 315.55 -244.63 316.74 C-252.16 319.56 -259.31 320.36 -267.31 320.31 C-268.23 320.31 -269.15 320.3 -270.1 320.3 C-286.1 320.03 -286.1 320.03 -291.73 315.66 C-293.94 314.09 -295.29 313.27 -298 313 C-302.19 315.55 -305.3 319.14 -308.56 322.75 C-309.47 323.7 -310.38 324.66 -311.31 325.64 C-314.41 328.91 -317.48 332.21 -320.4 335.64 C-326.4 342.67 -332.94 349.17 -339.45 355.72 C-340.09 356.37 -340.73 357.01 -341.39 357.68 C-344.76 361.08 -348.14 364.47 -351.52 367.87 C-354.31 370.67 -357.1 373.49 -359.88 376.31 C-363.24 379.73 -366.62 383.13 -370.01 386.53 C-371.3 387.82 -372.59 389.12 -373.86 390.42 C-375.65 392.24 -377.44 394.03 -379.24 395.82 C-379.77 396.37 -380.29 396.91 -380.84 397.47 C-382.33 398.93 -382.33 398.93 -385 401 C-389.54 400.5 -391.99 397.4 -395.03 394.29 C-395.63 393.7 -396.22 393.1 -396.83 392.49 C-398.8 390.51 -400.75 388.53 -402.71 386.55 C-404.07 385.18 -405.44 383.8 -406.81 382.43 C-410.42 378.81 -414.01 375.17 -417.61 371.54 C-423.35 365.74 -429.1 359.95 -434.86 354.17 C-436.86 352.15 -438.86 350.13 -440.86 348.11 C-442.1 346.86 -443.34 345.61 -444.58 344.36 C-445.13 343.8 -445.67 343.24 -446.24 342.67 C-449.48 339.41 -452.84 336.39 -456.36 333.42 C-458.69 331.4 -460.84 329.21 -463 327 C-464.79 325.24 -466.58 323.48 -468.37 321.72 C-473.55 316.65 -478.7 311.56 -483.85 306.46 C-486.96 303.38 -490.08 300.3 -493.21 297.24 C-496.24 294.28 -499.26 291.29 -502.27 288.3 C-503.42 287.16 -504.57 286.03 -505.73 284.9 C-507.35 283.33 -508.94 281.74 -510.53 280.15 C-511.45 279.25 -512.36 278.35 -513.3 277.42 C-513.86 276.62 -514.42 275.82 -515 275 C-514.23 271.96 -512.33 270.09 -510.13 267.92 C-509.84 267.63 -509.84 267.63 -508.38 266.18 C-507.76 265.57 -507.13 264.96 -506.49 264.33 C-506.17 264.01 -506.17 264.01 -504.53 262.38 C-502.46 260.34 -500.39 258.29 -498.31 256.25 C-496.26 254.22 -494.2 252.19 -492.15 250.16 C-490.87 248.89 -489.6 247.63 -488.32 246.38 C-484.54 242.64 -480.98 238.77 -477.51 234.74 C-475.64 232.59 -473.69 230.53 -471.69 228.5 C-471.36 228.16 -471.36 228.16 -469.7 226.47 C-468 225 -468 225 -466 225 C-465.32 223.67 -464.66 222.34 -464 221 C-462.45 219.26 -462.45 219.26 -460.6 217.49 C-459.91 216.82 -459.22 216.15 -458.51 215.47 C-458.14 215.11 -458.14 215.11 -456.26 213.31 C-454.7 211.8 -453.15 210.28 -451.59 208.76 C-449.13 206.37 -446.67 203.98 -444.19 201.61 C-441.8 199.32 -439.44 197 -437.07 194.69 C-436.32 193.98 -435.57 193.27 -434.79 192.53 C-434.12 191.87 -433.44 191.2 -432.75 190.51 C-432.14 189.93 -431.54 189.35 -430.92 188.74 C-430.61 188.17 -430.31 187.59 -430 187 C-431.33 184.97 -431.33 184.97 -433 183 C-433 182.01 -433 181.02 -433 180 C-431.25 180.62 -431.25 180.62 -429 182 C-428.22 182.41 -427.43 182.82 -426.62 183.25 C-426.09 183.83 -425.55 184.4 -425 185 C-425.56 188.19 -425.56 188.19 -427 191 C-427.99 191 -428.98 191 -430 191 C-430.14 191.74 -430.29 192.49 -430.44 193.25 C-431.13 196.63 -432.61 197.61 -435 200 C-434.67 200.99 -434.34 201.98 -434 203 C-433.97 205.87 -434.07 208.73 -434.16 211.6 C-434.11 212.39 -434.05 213.18 -434 214 C-433.34 214.33 -432.68 214.66 -432 215 C-432.99 220.58 -434.79 223.4 -438.89 227.43 C-439.39 227.92 -439.89 228.42 -440.4 228.92 C-442.02 230.54 -443.67 232.14 -445.32 233.73 C-446.46 234.86 -447.59 235.99 -448.73 237.11 C-451.72 240.07 -454.72 243.01 -457.72 245.95 C-462.54 250.66 -467.33 255.39 -472.12 260.13 C-473.8 261.78 -475.48 263.42 -477.16 265.06 C-478.19 266.07 -479.21 267.08 -480.24 268.09 C-481.13 268.97 -482.03 269.85 -482.96 270.75 C-485 273 -485 273 -486 276 C-484.69 276.71 -483.35 277.36 -482 278 C-480.14 279.68 -478.38 281.38 -476.62 283.16 C-476.36 283.43 -476.36 283.43 -475.04 284.76 C-473.31 286.49 -471.58 288.24 -469.86 289.98 C-468.65 291.19 -467.44 292.41 -466.23 293.62 C-463.05 296.82 -459.87 300.02 -456.7 303.23 C-451.63 308.34 -446.55 313.44 -441.47 318.54 C-439.71 320.32 -437.95 322.09 -436.19 323.87 C-431.2 328.89 -426.19 333.8 -420.8 338.4 C-417.48 341.35 -414.5 344.64 -411.46 347.89 C-410.07 349.36 -408.67 350.82 -407.26 352.28 C-405.08 354.56 -402.9 356.85 -400.76 359.17 C-398.67 361.42 -396.54 363.63 -394.4 365.83 C-393.76 366.54 -393.12 367.25 -392.47 367.98 C-390.68 369.78 -389.37 371.09 -387 372 C-383.95 370.78 -382.13 368.43 -380 366 C-378.77 364.8 -377.53 363.6 -376.29 362.42 C-374.97 361.11 -373.66 359.79 -372.34 358.48 C-371.64 357.77 -370.93 357.07 -370.2 356.34 C-368.72 354.86 -367.24 353.37 -365.76 351.89 C-363.51 349.63 -361.26 347.39 -359 345.14 C-357.55 343.69 -356.11 342.24 -354.66 340.79 C-353.99 340.13 -353.33 339.47 -352.64 338.78 C-348.82 334.94 -345.21 330.99 -341.67 326.89 C-339.18 324.08 -336.52 321.49 -333.81 318.89 C-332.69 317.8 -331.57 316.7 -330.45 315.61 C-328.71 313.91 -326.97 312.22 -325.22 310.54 C-323.51 308.9 -321.82 307.24 -320.12 305.58 C-319.59 305.08 -319.06 304.58 -318.52 304.06 C-317.07 302.62 -317.07 302.62 -315 300 C-315.37 297.59 -315.37 297.59 -316 296 C-315.01 296.33 -314.02 296.66 -313 297 C-312.62 298.66 -312.28 300.32 -312 302 C-311.67 301.01 -311.34 300.02 -311 299 C-309.63 297.5 -309.63 297.5 -308 296 C-307.53 295.44 -307.05 294.89 -306.56 294.31 C-305 293 -305 293 -301 293 C-301.38 291.12 -301.38 291.12 -302 289 C-301.34 288.34 -300.68 287.68 -300 287 C-299.67 287.66 -299.34 288.32 -299 289 C-298.49 289.25 -298.49 289.25 -295.94 290.5 C-294.97 291 -294 291.49 -293 292 C-293 292.66 -293 293.32 -293 294 C-291.06 294.56 -291.06 294.56 -288.44 295 C-285.41 295.52 -282.61 296.12 -279.67 297.04 C-268.29 300.03 -256.28 298.7 -246 293 C-238.41 288.04 -232.22 281.5 -225.87 275.1 C-224.71 273.94 -223.55 272.78 -222.39 271.62 C-219.97 269.2 -217.55 266.77 -215.14 264.34 C-212.06 261.25 -208.98 258.16 -205.89 255.08 C-203.5 252.68 -201.11 250.29 -198.72 247.89 C-197.58 246.75 -196.45 245.61 -195.31 244.48 C-189.83 238.99 -184.39 233.51 -179.4 227.57 C-177.19 225.09 -174.55 223.12 -172 221 C-170.94 219.82 -169.9 218.62 -168.87 217.41 C-164.8 212.71 -160.45 208.34 -156.03 203.97 C-155.61 203.55 -155.61 203.55 -153.49 201.44 C-149.93 197.9 -146.37 194.36 -142.81 190.83 C-140.19 188.23 -137.58 185.63 -134.97 183.03 C-134.17 182.24 -133.38 181.46 -132.56 180.65 C-129.12 177.22 -125.76 173.78 -122.6 170.1 C-118.61 165.46 -114.29 161.18 -109.95 156.88 C-108.46 155.4 -106.97 153.92 -105.49 152.44 C-101.79 148.76 -98.09 145.08 -94.4 141.41 C-91.26 138.29 -88.12 135.17 -84.99 132.05 C-83.54 130.6 -82.08 129.16 -80.63 127.71 C-76.05 123.16 -71.61 118.56 -67.42 113.65 C-65.4 111.31 -63.22 109.16 -61 107 C-60.34 106.28 -59.68 105.56 -59 104.81 C-55.48 101.62 -52.71 101 -48 101 C-47.44 98.75 -47.44 98.75 -47 96 C-45.56 93.69 -45.56 93.69 -44 92 C-43.34 92 -42.68 92 -42 92 C-41.38 92.85 -40.76 93.69 -40.12 94.56 C-38 97 -38 97 -35.94 97.25 C-32.78 95.21 -32.1 92.48 -31 89 C-31.66 88.34 -32.32 87.68 -33 87 C-33.25 83.87 -33.25 83.87 -33 81 C-32.34 81 -31.68 81 -31 81 C-30.33 79.67 -29.66 78.34 -29 77 C-27.34 75.32 -25.57 73.89 -23.73 72.4 C-22 71 -22 71 -19.94 69 C-18 68 -18 68 -14.75 69 C-13.84 69.33 -12.93 69.66 -12 70 C-12 69.01 -12 68.02 -12 67 C-11.78 65.6 -11.55 64.21 -11.31 62.81 C-11.21 61.55 -11.11 60.3 -11 59 C-11.99 59 -12.98 59 -14 59 C-14 58.34 -14 57.68 -14 57 C-13.5 56.84 -13.5 56.84 -11 56 C-10.93 54 -10.88 52.01 -10.95 50.01 C-11 47.83 -10.85 46.03 -10 44 C-9.34 44 -8.68 44 -8 44 C-7.9 41.14 -7.91 38.36 -8 35.5 C-8.09 32.64 -8.1 29.86 -8 27 C-7.34 27 -6.68 27 -6 27 C-5.86 26.36 -5.71 25.72 -5.56 25.06 C-5.38 24.38 -5.19 23.7 -5 23 C-4.01 22.67 -3.02 22.34 -2 22 C-1.12 19.75 -1.12 19.75 -0.44 17 C0.25 14.25 0.25 14.25 1 12 C1.66 11.67 2.32 11.34 3 11 C2.75 7.44 2.75 7.44 2 4 C1.34 4 0.68 4 0 4 C0 2.68 0 1.36 0 0 Z " fill="#041632" transform="translate(553,168)"/>
<path d="M0 0 C0.66 0 1.32 0 2 0 C3.38 1.43 3.38 1.43 5 3.44 C7.53 6.43 10.12 9.07 13.09 11.62 C21.64 19.23 29.57 27.5 37.62 35.62 C40.91 38.93 44.19 42.24 47.48 45.54 C48.21 46.28 48.95 47.03 49.71 47.8 C53.77 51.88 57.92 55.78 62.3 59.52 C64.53 61.46 66.62 63.52 68.69 65.62 C69.39 66.34 70.1 67.05 70.82 67.79 C71.54 68.52 72.26 69.25 73 70 C73.77 70.77 74.54 71.54 75.34 72.34 C77.82 74.82 80.29 77.3 82.76 79.79 C84.55 81.59 86.34 83.39 88.12 85.19 C89.03 86.1 89.94 87.02 90.87 87.96 C91.31 88.4 91.31 88.4 93.51 90.61 C94.3 91.4 95.09 92.2 95.9 93.02 C98 95 98 95 101 97 C100.04 99.91 98.38 101.86 96.22 103.99 C95.66 104.54 95.11 105.1 94.53 105.67 C93.93 106.26 93.33 106.85 92.71 107.45 C92.08 108.07 91.46 108.69 90.82 109.33 C88.82 111.31 86.82 113.28 84.81 115.25 C82.83 117.21 80.84 119.17 78.86 121.13 C77.63 122.35 76.4 123.56 75.16 124.77 C71.54 128.36 68.14 132.08 64.8 135.94 C59.52 141.97 53.92 147.71 48.33 153.46 C46.76 155.08 45.21 156.72 43.67 158.37 C41.43 160.75 39.16 163.09 36.88 165.43 C36.19 166.18 35.5 166.93 34.8 167.7 C32.91 169.59 31.48 171 29 172 C25.91 170.79 24.12 168.48 22 166 C20.93 164.95 19.85 163.9 18.76 162.86 C17.66 161.75 16.57 160.65 15.47 159.54 C14.88 158.94 14.29 158.34 13.68 157.73 C11.17 155.21 8.68 152.69 6.18 150.16 C4.34 148.3 2.5 146.45 0.66 144.6 C0.39 144.32 0.39 144.32 -1 142.91 C-3.79 140.11 -6.62 137.44 -9.62 134.88 C-15 130.23 -19.96 125.15 -24.97 120.1 C-26.78 118.29 -28.58 116.47 -30.39 114.66 C-34.22 110.82 -38.05 106.97 -41.88 103.12 C-46.33 98.64 -50.79 94.17 -55.25 89.69 C-57.03 87.9 -58.81 86.11 -60.59 84.32 C-61.68 83.23 -62.76 82.14 -63.85 81.05 C-64.35 80.55 -64.84 80.05 -65.35 79.54 C-68.77 76.11 -68.77 76.11 -71 75 C-70.81 70.88 -68.12 68.76 -65.32 65.99 C-64.83 65.51 -64.34 65.02 -63.84 64.52 C-62.23 62.92 -60.61 61.33 -58.99 59.73 C-57.87 58.62 -56.74 57.5 -55.62 56.38 C-52.65 53.43 -49.67 50.49 -46.7 47.55 C-41.95 42.86 -37.22 38.16 -32.49 33.46 C-30.84 31.83 -29.19 30.21 -27.54 28.58 C-22.65 23.74 -17.84 18.87 -13.38 13.62 C-8.02 7.34 -8.02 7.34 -4 6 C-2.94 4.06 -2.94 4.06 -2 2 C-1.34 1.34 -0.68 0.68 0 0 Z " fill="#F4F5F6" transform="translate(138,369)"/>
<path d="M0 0 C2.3 0.85 2.3 0.85 4.3 1.85 C11.57 2.21 11.57 2.21 15.1 0.43 C18.3 -0.15 18.3 -0.15 20.05 0.88 C22.03 2.6 23.85 4.4 25.67 6.28 C27 7.59 28.33 8.9 29.66 10.21 C30.28 10.84 30.91 11.47 31.56 12.13 C33.61 14.16 35.74 16.08 37.92 17.97 C38.51 18.49 39.1 19 39.71 19.53 C41.2 20.77 42.78 21.91 44.36 23.03 C45 23.63 45.64 24.23 46.3 24.85 C46.15 27.29 45.38 28.67 44.3 30.85 C44.13 32.8 44.13 32.8 44.11 35.1 C44.09 35.84 44.08 36.59 44.07 37.36 C44.3 39.85 44.3 39.85 45.57 42.69 C45.81 43.73 46.05 44.77 46.3 45.85 C44.72 48.36 44.72 48.36 42.19 50.81 C41.29 51.69 40.39 52.57 39.46 53.48 C38.98 53.93 38.98 53.93 36.55 56.22 C35.59 57.16 34.63 58.09 33.68 59.03 C26.63 65.85 26.63 65.85 24.3 65.85 C24.13 66.34 24.13 66.34 23.3 68.85 C21.94 70.18 21.94 70.18 20.11 71.66 C17.15 74.1 14.52 76.66 11.97 79.52 C11.37 80.17 10.78 80.82 10.17 81.49 C8.97 82.8 7.8 84.13 6.66 85.49 C4.93 87.35 3.58 88.71 1.3 89.85 C-1.27 89.54 -3.2 88.82 -5.53 87.73 C-9.29 86.2 -12.91 86.54 -16.7 87.85 C-18.65 89.36 -20.28 90.91 -21.9 92.76 C-22.5 93.12 -23.09 93.48 -23.7 93.85 C-25.73 93.25 -27.73 92.57 -29.7 91.85 C-30.63 91.52 -31.56 91.19 -32.52 90.86 C-35.67 89.73 -38.81 88.6 -41.95 87.47 C-43.04 87.08 -44.12 86.7 -45.23 86.3 C-47.37 85.53 -49.51 84.75 -51.64 83.97 C-53.64 83.24 -55.64 82.52 -57.65 81.82 C-58.1 81.66 -58.1 81.66 -60.37 80.84 C-61.16 80.56 -61.95 80.28 -62.76 80 C-65.28 78.5 -65.84 77.06 -66.83 74.35 C-67.58 71.33 -67.7 69.02 -67.7 65.85 C-67.04 65.85 -66.38 65.85 -65.7 65.85 C-65.01 64.53 -64.35 63.19 -63.7 61.85 C-59 55.75 -52.91 47.91 -45.25 45.97 C-42.14 46.1 -42.14 46.1 -39.23 46.5 C-35.62 46.99 -33.65 45.86 -30.7 43.85 C-30.06 43.08 -29.42 42.31 -28.76 41.52 C-25.7 39.85 -25.7 39.85 -23.26 40.19 C-20.19 41.1 -17.21 42.16 -14.2 43.28 C-13.13 43.66 -12.05 44.04 -10.95 44.44 C-4.29 46.81 2.32 49.32 8.81 52.13 C11.77 52.98 13.45 53.07 16.3 51.85 C16.86 49.41 16.86 49.41 16.3 46.85 C14.67 45.66 14.67 45.66 12.3 44.85 C11.84 44.69 11.84 44.69 9.53 43.87 C4.5 42.28 -0.53 40.69 -5.57 39.13 C-6.25 38.91 -6.94 38.7 -7.64 38.48 C-9.01 38.06 -10.38 37.64 -11.76 37.23 C-13.71 36.65 -15.64 36.03 -17.58 35.41 C-18.14 35.23 -18.14 35.23 -21.01 34.35 C-23.7 32.85 -23.7 32.85 -25.15 30 C-25.74 26.66 -25.71 25.05 -24.7 21.85 C-21.91 18.31 -18.7 15.18 -15.5 12.01 C-13.96 10.47 -12.44 8.91 -10.92 7.33 C-9.93 6.35 -8.95 5.37 -7.97 4.39 C-7.53 3.94 -7.53 3.94 -5.28 1.67 C-2.7 -0.15 -2.7 -0.15 0 0 Z " fill="#01429C" transform="translate(335.7041015625,159.15380859375)"/>
<path d="M0 0 C0.84 0.23 1.67 0.46 2.54 0.7 C3.24 0.76 3.94 0.81 4.66 0.87 C6.96 1.15 8.53 1.53 10.54 2.7 C12.4 6.02 13.03 9.52 13.76 13.22 C13.88 13.75 13.88 13.75 14.47 16.41 C14.96 18.63 15.44 20.86 15.89 23.09 C16.6 26.5 17.34 29.9 18.1 33.3 C18.58 35.46 19.04 37.62 19.51 39.79 C19.73 40.8 19.95 41.82 20.18 42.87 C20.27 43.35 20.27 43.35 20.77 45.76 C20.94 46.6 21.11 47.43 21.29 48.29 C21.57 51.05 21.36 53.06 20.54 55.7 C19.05 56.96 17.57 58.21 16.03 59.4 C13.59 61.53 12.64 63.68 11.54 66.7 C11.57 67.41 11.6 68.11 11.63 68.84 C11.74 71.54 11.62 73.22 10.54 75.7 C6.94 78.39 2.99 80.04 -1.13 81.73 C-3.76 82.83 -6.34 84.01 -8.92 85.21 C-10.81 86.06 -12.7 86.92 -14.59 87.77 C-15.5 88.19 -16.41 88.6 -17.35 89.04 C-18.22 89.41 -19.08 89.79 -19.97 90.18 C-20.36 90.35 -20.36 90.35 -22.3 91.22 C-25.1 91.85 -26.07 91.19 -28.46 89.7 C-32.99 87.52 -36.41 86.05 -41.46 86.7 C-44.21 88.2 -44.21 88.2 -46.46 89.7 C-47.12 89.7 -47.78 89.7 -48.46 89.7 C-49.18 91.35 -49.85 93.02 -50.46 94.7 C-50.79 95.03 -51.12 95.36 -51.46 95.7 C-51.31 96.38 -51.16 97.06 -51 97.75 C-50.39 101.22 -50.44 103.31 -51.46 106.7 C-55.27 111.29 -60.44 114.65 -65.25 118.1 C-68.64 120.55 -71.88 123.16 -75.15 125.77 C-76.26 126.63 -77.37 127.5 -78.48 128.36 C-80.42 129.89 -82.34 131.43 -84.23 133.01 C-86.46 134.7 -86.46 134.7 -88.46 134.7 C-89.58 132.2 -89.51 130.87 -88.77 128.22 C-88.58 127.75 -88.58 127.75 -87.61 125.38 C-87.18 124.31 -86.75 123.23 -86.3 122.12 C-85.82 120.95 -85.34 119.78 -84.84 118.58 C-84.09 116.72 -83.34 114.86 -82.59 113 C-82.06 111.68 -81.53 110.36 -81 109.05 C-77.66 100.77 -74.51 92.42 -71.34 84.08 C-70.49 81.85 -69.65 79.63 -68.8 77.4 C-68.29 76.07 -67.78 74.73 -67.28 73.4 C-66.41 71.12 -65.55 68.89 -64.46 66.7 C-62.39 66.25 -62.39 66.25 -59.78 65.89 C-54.55 64.93 -52.05 63.65 -48.46 59.7 C-46.9 56.71 -46.38 54.56 -46.71 51.19 C-46.98 48.17 -46.99 45.7 -46.46 42.7 C-44.84 40.8 -44.84 40.8 -42.51 38.95 C-37.46 34.67 -32.84 30.1 -28.23 25.35 C-26.73 23.83 -25.24 22.3 -23.74 20.78 C-21.43 18.41 -19.12 16.04 -16.82 13.66 C-14.57 11.34 -12.31 9.03 -10.04 6.73 C-9.35 6.01 -8.66 5.29 -7.96 4.54 C-7.31 3.89 -6.66 3.24 -5.99 2.57 C-5.43 1.99 -4.87 1.41 -4.29 0.81 C-2.46 -0.3 -2.46 -0.3 0 0 Z " fill="#013E92" transform="translate(388.46368408203125,211.29563903808594)"/>
<path d="M0 0 C0.66 0 1.32 0 2 0 C3.38 1.43 3.38 1.43 5 3.44 C7.53 6.43 10.12 9.07 13.09 11.62 C21.64 19.23 29.57 27.5 37.62 35.62 C40.91 38.93 44.19 42.24 47.48 45.54 C48.21 46.28 48.95 47.03 49.71 47.8 C53.77 51.88 57.92 55.78 62.3 59.52 C64.53 61.46 66.62 63.52 68.69 65.62 C69.39 66.34 70.1 67.05 70.82 67.79 C71.54 68.52 72.26 69.25 73 70 C73.77 70.77 74.54 71.54 75.34 72.34 C77.82 74.82 80.29 77.3 82.76 79.79 C84.55 81.59 86.34 83.39 88.12 85.19 C89.03 86.1 89.94 87.02 90.87 87.96 C91.31 88.4 91.31 88.4 93.51 90.61 C93.9 91 93.9 91 95.9 93.02 C98 95 98 95 101 97 C99.47 101.65 95.59 105.12 92.31 108.62 C91.71 109.32 91.11 110.02 90.49 110.75 C88.72 112.61 87.37 113.97 85 115 C81.88 113.13 80.35 111.67 78 109 C76.49 107.5 74.97 106 73.44 104.5 C70.99 102.03 68.55 99.55 66.12 97.08 C62.56 93.49 59.03 89.96 55.18 86.68 C48.71 81.13 42.84 74.89 36.85 68.82 C35.22 67.18 33.6 65.54 31.97 63.91 C31.49 63.42 31.01 62.93 30.51 62.43 C27.8 59.7 25.02 57.12 22.1 54.61 C17.99 51.04 14.17 47.24 10.36 43.35 C8.95 41.92 7.53 40.49 6.12 39.06 C3.92 36.83 1.72 34.6 -0.47 32.36 C-2.6 30.19 -4.74 28.02 -6.89 25.85 C-7.54 25.18 -8.2 24.51 -8.87 23.81 C-9.49 23.19 -10.1 22.58 -10.74 21.94 C-11.27 21.39 -11.81 20.85 -12.36 20.29 C-14.21 18.84 -15.75 18.56 -18 18 C-16.53 16.29 -16.53 16.29 -13.94 14.19 C-11.44 12.13 -9.25 10.34 -7.32 7.74 C-7.1 7.45 -7.1 7.45 -6 6 C-5.34 6 -4.68 6 -4 6 C-3.3 4.68 -2.63 3.35 -2 2 C-1.34 1.34 -0.68 0.68 0 0 Z " fill="#99B7E3" transform="translate(138,369)"/>
<path d="M0 0 C3 0.99 5.08 1.92 7.55 3.91 C9.7 8.46 10.45 13.1 11.24 18.04 C11.49 19.35 11.74 20.67 11.99 21.98 C13.75 31.51 13.75 31.51 12.55 33.91 C9.13 36.2 6.02 36.1 1.99 36.29 C-6.09 37.29 -9.42 41 -14.24 47.07 C-14.97 48.01 -15.7 48.95 -16.45 49.91 C-18.79 52.56 -21.35 54.19 -24.39 55.98 C-25.24 56.48 -26.1 56.99 -26.98 57.51 C-32.59 60.69 -36.28 61.25 -42.7 61.23 C-43.52 61.24 -44.34 61.26 -45.19 61.28 C-50.89 61.28 -55.3 60.44 -60.45 57.91 C-58.07 55.54 -57.54 55.71 -54.32 55.6 C-47.8 55 -43.4 52.02 -39.01 47.29 C-36.93 44.13 -36.37 42.51 -36.84 38.73 C-37.29 34.61 -37.67 30.91 -36.45 26.91 C-32.99 22.88 -28.99 20.24 -24.56 17.35 C-20.79 14.79 -17.33 11.83 -13.82 8.91 C-12.5 7.83 -11.17 6.75 -9.85 5.66 C-9.57 5.44 -9.57 5.44 -8.15 4.27 C-7.59 3.83 -7.03 3.38 -6.45 2.91 C-6.14 2.63 -6.14 2.63 -4.55 1.18 C-2.45 -0.09 -2.45 -0.09 0 0 Z " fill="#013A8A" transform="translate(343.448486328125,324.08544921875)"/>
<path d="M0 0 C0 0.66 0 1.32 0 2 C0.61 2.3 1.21 2.6 1.84 2.91 C5.6 4.81 7.19 8.3 9 12 C9.54 13.74 10.04 15.49 10.5 17.25 C11.42 20.6 11.92 21.91 14.31 24.56 C17 26 17 26 20.69 26.25 C21.45 26.5 22.21 26.75 23 27 C21.55 30.08 19.28 32.5 17 35 C16.25 35.91 15.51 36.81 14.74 37.75 C11.13 40.71 9.1 40.49 4.5 40.25 C-2.74 39.93 -2.74 39.93 -5.69 40.71 C-8 41 -8 41 -10.18 39.55 C-10.56 39.18 -10.56 39.18 -12.44 37.31 C-13.29 36.49 -14.15 35.67 -15.04 34.82 C-15.5 34.37 -15.97 33.92 -16.45 33.45 C-19.33 30.75 -22.36 28.23 -25.38 25.69 C-27.1 24.23 -28.82 22.77 -30.52 21.29 C-31.79 20.18 -33.1 19.11 -34.41 18.04 C-36.66 15.16 -36.27 13.22 -36 9.62 C-35.79 3.8 -36.3 1.39 -40 -3 C-40 -3.99 -40 -4.98 -40 -6 C-26.59 -11.1 -11.49 -8.23 0 0 Z " fill="#0147A1" transform="translate(395,138)"/>
<path d="M0 0 C2.64 1.3 4.19 2.62 6.18 4.79 C8.87 7.63 11.58 10.3 14.55 12.85 C24.16 21.14 24.16 21.14 26.36 25.16 C25.05 28.91 22.5 31.2 19.68 33.91 C15.85 37.65 12.26 41.46 8.84 45.57 C7.36 47.16 7.36 47.16 4.36 49.16 C0.29 48.9 -1.65 47.63 -4.45 44.74 C-5.13 44.05 -5.82 43.35 -6.52 42.63 C-7.22 41.9 -7.92 41.17 -8.64 40.41 C-9.34 39.7 -10.03 38.98 -10.75 38.24 C-12.11 36.85 -13.46 35.45 -14.81 34.05 C-17.06 31.73 -19.34 29.44 -21.64 27.16 C-22.3 26.5 -22.96 25.84 -23.64 25.16 C-23.31 21.85 -22.05 20.22 -19.69 17.96 C-19.09 17.37 -18.48 16.78 -17.87 16.18 C-17.23 15.58 -16.6 14.97 -15.95 14.35 C-14.71 13.16 -13.48 11.97 -12.25 10.77 C-11.95 10.48 -11.95 10.48 -10.41 8.99 C-8.61 7.14 -7.07 5.19 -5.49 3.15 C-3 0.19 -3 0.19 0 0 Z " fill="#04152F" transform="translate(126.63671875,404.8359375)"/>
<path d="M0 0 C0.76 0.31 1.53 0.62 2.31 0.94 C2.64 1.93 2.97 2.92 3.31 3.94 C4.63 4.63 5.97 5.29 7.31 5.94 C10.58 8.73 13.58 11.79 16.62 14.81 C17.47 15.63 18.32 16.44 19.2 17.29 C19.6 17.68 19.6 17.68 21.61 19.68 C22.35 20.4 23.08 21.12 23.84 21.86 C25.31 23.94 25.31 23.94 25.12 26.1 C23.4 30.02 20.21 32.86 17.31 35.94 C16.81 36.48 16.31 37.03 15.79 37.59 C14.11 39.41 12.4 41.21 10.69 43 C10.14 43.6 9.59 44.19 9.02 44.81 C5.08 48.85 5.08 48.85 1.84 49.22 C-1.98 47.28 -4.58 44.41 -7.5 41.31 C-8.74 40.03 -9.98 38.75 -11.22 37.46 C-11.81 36.85 -12.41 36.24 -13.02 35.6 C-15.62 33.01 -18.42 30.7 -21.33 28.46 C-23.28 26.27 -23.67 24.87 -23.69 21.94 C-21.84 19.54 -21.84 19.54 -19.19 17.12 C-15.9 14.04 -12.74 10.99 -9.81 7.56 C-9.26 6.93 -8.71 6.29 -8.14 5.64 C-6.94 4.23 -5.75 2.8 -4.56 1.38 C-2.69 -0.06 -2.69 -0.06 0 0 Z " fill="#06152F" transform="translate(177.6875,454.0625)"/>
<path d="M0 0 C0.33 0.99 0.66 1.98 1 3 C2.79 3.34 2.79 3.34 5.12 3.3 C5.97 3.31 6.82 3.31 7.69 3.31 C8.6 3.31 9.5 3.31 10.44 3.31 C18.4 3.5 25.05 4.09 31 10 C31.68 11.33 32.34 12.66 33 14 C33.66 14 34.32 14 35 14 C41.91 22.28 43.2 30.06 43.46 40.6 C43.31 41.39 43.16 42.18 43 43 C41.23 42.38 41.23 42.38 39 41 C37 40.77 37 40.77 35 40.81 C34.34 40.82 33.68 40.83 33 40.83 C31 41 31 41 29.15 41.66 C26.21 42.13 25.09 41.24 22.59 39.68 C21.74 39.17 20.9 38.65 20.03 38.12 C19.15 37.56 18.28 37.01 17.38 36.44 C16.95 36.17 16.95 36.17 14.79 34.84 C13.07 33.77 11.35 32.7 9.63 31.61 C7.84 30.51 6.01 29.47 4.16 28.49 C-2.73 24.76 -2.73 24.76 -4.16 20.78 C-4.13 19.7 -4.1 18.62 -4.06 17.5 C-4.06 16.96 -4.06 16.96 -4.04 14.22 C-4.02 13.16 -4.01 12.09 -4 11 C-4.11 10.47 -4.11 10.47 -4.64 7.79 C-4.76 6.87 -4.88 5.95 -5 5 C-2.62 1.94 -2.62 1.94 0 0 Z " fill="#01449B" transform="translate(419,178)"/>
<path d="M0 0 C3.44 2 3.44 2 6 4 C5.34 4.33 4.68 4.66 4 5 C3.76 5.59 3.52 6.18 3.27 6.79 C1.17 10.45 -2.55 12.26 -6.04 14.47 C-12.66 18.82 -16.23 23.76 -18.94 31.25 C-21.29 37.51 -23.85 43.68 -28 49 C-28.66 49 -29.32 49 -30 49 C-30.25 49.56 -30.5 50.11 -30.75 50.69 C-32.02 53.03 -33.02 53.99 -35.06 55.62 C-38 58 -38 58 -39 60 C-39.66 59.67 -40.32 59.34 -41 59 C-41.69 56.78 -41.69 56.78 -42.29 53.86 C-42.51 52.81 -42.73 51.76 -42.95 50.67 C-43.06 50.12 -43.06 50.12 -43.62 47.31 C-43.85 46.22 -44.08 45.13 -44.32 44.01 C-46.38 33.94 -46.38 33.94 -46 29 C-43.62 26.88 -43.62 26.88 -41 25 C-39.16 22.33 -39 20.88 -38.86 17.58 C-38 14 -38 14 -35.25 12.07 C-34.04 11.57 -32.82 11.07 -31.56 10.56 C-30.2 9.99 -28.84 9.42 -27.48 8.85 C-27.12 8.7 -27.12 8.7 -25.29 7.96 C-22.88 6.95 -20.53 5.86 -18.18 4.75 C-17.38 4.37 -16.58 4 -15.75 3.61 C-14.19 2.88 -12.63 2.15 -11.08 1.4 C-4.34 -1.67 -4.34 -1.67 0 0 Z " fill="#023B8A" transform="translate(404,296)"/>
<path d="M0 0 C0.8 0.27 1.6 0.53 2.42 0.81 C2.77 0.82 2.77 0.82 4.54 0.87 C7.01 1.06 8.37 1.4 10.42 2.81 C12.38 7.14 13.11 11.64 13.92 16.31 C14.17 17.57 14.42 18.83 14.68 20.13 C16.42 29.06 16.42 29.06 16.42 31.81 C15.76 31.81 15.1 31.81 14.42 31.81 C12.22 27.57 11.59 22.96 10.8 18.31 C10.73 17.93 10.73 17.93 10.39 16.04 C9.84 12.85 9.42 10.01 9.53 6.76 C9.52 6.43 9.52 6.43 9.42 4.81 C6.3 5.12 6.3 5.12 2.42 5.81 C0.42 5.14 -1.58 4.47 -3.58 3.81 C-3.91 4.8 -4.24 5.79 -4.58 6.81 C-5.57 6.81 -6.56 6.81 -7.58 6.81 C-7.58 7.8 -7.58 8.79 -7.58 9.81 C-6.59 9.81 -5.6 9.81 -4.58 9.81 C-4.58 10.8 -4.58 11.79 -4.58 12.81 C-5.91 14.14 -7.24 15.47 -8.58 16.81 C-8.58 17.8 -8.58 18.79 -8.58 19.81 C-9.24 19.81 -9.9 19.81 -10.58 19.81 C-11.26 21.13 -11.92 22.47 -12.58 23.81 C-13.09 24.3 -13.61 24.8 -14.14 25.31 C-15.58 26.81 -15.58 26.81 -16.7 28.99 C-16.66 29.59 -16.62 30.19 -16.58 30.81 C-13.33 30.99 -13.33 30.99 -9.58 30.81 C-8.59 31.14 -7.6 31.47 -6.58 31.81 C-6.21 33.57 -6.21 33.57 -6.15 35.82 C-5.73 41.09 -3.9 44.94 -1.45 49.56 C2.48 56.98 2.48 56.98 2.23 60.76 C1.42 62.81 1.42 62.81 0.42 63.81 C-2.44 64.21 -2.44 64.21 -5.58 63.81 C-7.37 61.5 -7.37 61.5 -8.76 58.37 C-9.26 57.28 -9.75 56.2 -10.26 55.08 C-11.4 52.26 -12.37 49.46 -13.26 46.56 C-13.7 45.32 -14.13 44.08 -14.58 42.81 C-15.57 42.81 -16.56 42.81 -17.58 42.81 C-18.49 41.16 -18.49 41.16 -19.2 38.99 C-19.44 38.29 -19.68 37.58 -19.93 36.85 C-20.14 36.18 -20.36 35.5 -20.58 34.81 C-20.74 34.31 -20.74 34.31 -21.58 31.81 C-21.25 31.15 -20.92 30.49 -20.58 29.81 C-24.1 28.88 -26.28 28.73 -29.83 29.68 C-30.4 29.72 -30.98 29.76 -31.58 29.81 C-26.68 23.62 -21.1 18.01 -15.57 12.4 C-14.52 11.33 -13.48 10.25 -12.45 9.17 C-10.94 7.6 -9.42 6.05 -7.88 4.49 C-6.99 3.57 -6.09 2.65 -5.16 1.69 C-2.58 -0.19 -2.58 -0.19 0 0 Z " fill="#004696" transform="translate(388.575927734375,211.193359375)"/>
<path d="M0 0 C1.32 0 2.64 0 4 0 C4 0.66 4 1.32 4 2 C4.66 2 5.32 2 6 2 C6 1.34 6 0.68 6 0 C10.14 0.08 12.49 0.64 15.88 3.06 C18.46 6.64 19.2 9.66 19 14 C18.67 15.49 18.29 16.97 17.88 18.44 C17.59 19.61 17.3 20.79 17 22 C17.99 22.33 18.98 22.66 20 23 C18.5 25.12 18.5 25.12 16 27 C13.31 26.69 13.31 26.69 11 26 C10.67 26.33 10.34 26.66 10 27 C5.08 27.44 0.38 27.5 -4 25 C-6.31 23.06 -6.31 23.06 -8 21 C-8 20.01 -8 19.02 -8 18 C-7.34 18 -6.68 18 -6 18 C-6.12 16.72 -6.25 15.44 -6.38 14.12 C-6.46 11.91 -6.46 11.91 -6 10 C-3.9 8.93 -2.09 8.64 0.25 8.35 C0.83 8.24 1.4 8.12 2 8 C2 7.34 2 6.68 2 6 C1.01 5.67 0.02 5.34 -1 5 C-0.01 4.67 0.98 4.34 2 4 C2 3.34 2 2.68 2 2 C1.34 2 0.68 2 0 2 C0 1.34 0 0.68 0 0 Z " fill="#02FBF9" transform="translate(340,133)"/>
<path d="M0 0 C3.15 0.42 5.38 1.07 8.31 2.19 C10.03 2.79 11.74 3.39 13.45 4 C14.35 4.32 15.25 4.65 16.18 4.99 C19.06 6.02 21.95 6.98 24.86 7.91 C25.34 8.06 25.34 8.06 27.74 8.84 C29.6 9.44 31.46 10.04 33.32 10.64 C34.16 10.92 35.01 11.2 35.88 11.48 C36.63 11.73 37.38 11.97 38.15 12.23 C40 13 40 13 42 15 C42.25 17.5 42.25 17.5 42 20 C41.34 20.66 40.68 21.32 40 22 C35.86 21.62 32.18 20.48 28.3 19.04 C27.23 18.65 26.17 18.26 25.07 17.86 C23.98 17.45 22.88 17.04 21.75 16.62 C19.58 15.82 17.41 15.02 15.23 14.23 C14.19 13.84 13.14 13.46 12.07 13.06 C8.37 11.78 4.63 10.74 0.84 9.79 C0.23 9.53 -0.38 9.27 -1 9 C-2 6 -2 6 -1.58 2.68 C-1.06 1.79 -0.54 0.91 0 0 Z " fill="#0885EF" transform="translate(311,191)"/>
<path d="M0 0 C3.19 0.44 3.19 0.44 5.12 2.9 C7.6 6.91 9.49 11.19 11.38 15.5 C11.73 16.29 12.09 17.08 12.45 17.89 C15.96 25.83 15.96 25.83 16.19 29.44 C15.53 30.43 14.87 31.42 14.19 32.44 C11.25 32.95 11.25 32.95 8.19 32.44 C6.5 30.27 6.5 30.27 5.19 27.25 C4.7 26.16 4.21 25.07 3.71 23.95 C3.21 22.79 2.71 21.63 2.19 20.44 C1.62 19.29 1.06 18.14 0.48 16.96 C-4.3 7.21 -4.3 7.21 -3.81 1.44 C-2.81 0.44 -2.81 0.44 0 0 Z " fill="#0A7FEC" transform="translate(374.8125,242.5625)"/>
<path d="M0 0 C4 4.36 4 4.36 4 7 C4.66 7.33 5.32 7.66 6 8 C4.74 9.34 4.74 9.34 2.65 11.05 C-1.93 14.9 -6.16 19.01 -10.38 23.25 C-11.09 23.96 -11.8 24.66 -12.53 25.39 C-12.87 25.73 -12.87 25.73 -14.59 27.45 C-15.19 28.06 -15.8 28.67 -16.43 29.3 C-18 31 -18 31 -20 34 C-22.25 31.96 -23.6 30.6 -25 28 C-24.71 24.17 -22.51 22.45 -19.75 20.06 C-19.05 19.48 -18.36 18.9 -17.64 18.3 C-14.13 15.24 -10.85 11.98 -7.56 8.69 C-6.94 8.06 -6.31 7.44 -5.66 6.8 C-5.07 6.21 -4.48 5.62 -3.88 5.01 C-3.35 4.48 -2.82 3.95 -2.27 3.4 C-1 2 -1 2 0 0 Z " fill="#0D8DEE" transform="translate(329,151)"/>
<path d="M0 0 C1.71 1.27 3.38 2.61 5 4 C5.99 4.66 6.98 5.32 8 6 C6.36 7.04 4.68 8.03 3 9 C0.47 11.24 -1.88 13.65 -4.25 16.06 C-4.89 16.7 -5.52 17.34 -6.18 17.99 C-10.86 22.72 -10.86 22.72 -12 25 C-12.66 25 -13.32 25 -14 25 C-14.33 25.99 -14.66 26.98 -15 28 C-17.44 25.81 -17.44 25.81 -20 23 C-20.66 22.34 -21.32 21.68 -22 21 C-20.87 19.73 -20.87 19.73 -18.88 18.19 C-14.14 14.29 -10.12 9.91 -6.04 5.36 C-2.19 1.1 -2.19 1.1 0 0 Z " fill="#0C8BED" transform="translate(282,200)"/>
<path d="M0 0 C0 0.66 0 1.32 0 2 C-4.42 5.72 -8.35 6.69 -14.02 7.51 C-14.68 7.67 -15.33 7.83 -16 8 C-16 8.66 -16 9.32 -16 10 C-17.67 10 -19.33 10 -21 10 C-21 10.66 -21 11.32 -21 12 C-21.99 12 -22.98 12 -24 12 C-24.33 12.99 -24.66 13.98 -25 15 C-22.56 15.81 -22.56 15.81 -20 16 C-20 15.34 -20 14.68 -20 14 C-18.33 14 -16.67 14 -15 14 C-15 13.34 -15 12.68 -15 12 C-11.58 9.72 -8.93 9.28 -4.96 8.56 C-4.31 8.38 -3.67 8.19 -3 8 C-2.67 7.34 -2.34 6.68 -2 6 C-0 5.55 -0 5.55 2.44 5.31 C2.84 5.27 2.84 5.27 4.87 5.05 C7 5 7 5 9 6 C9 6.66 9 7.32 9 8 C9.99 8 10.98 8 12 8 C13 10.12 13 10.12 13 12 C9.98 11.18 8.22 10.22 6 8 C-0.81 8.52 -6.99 11.61 -13.22 14.25 C-14.62 14.83 -16.02 15.41 -17.44 15.97 C-19.49 16.79 -21.52 17.64 -23.55 18.51 C-24.76 19.01 -25.98 19.51 -27.23 20.03 C-30 22 -30 22 -30.84 25.72 C-30.89 26.8 -30.95 27.88 -31 29 C-31.33 29 -31.66 29 -32 29 C-32.37 21.55 -32.37 21.55 -30 18 C-29.01 18 -28.02 18 -27 18 C-27 17.34 -27 16.68 -27 16 C-29 15.88 -29 15.88 -31.56 16 C-34.13 16.12 -34.13 16.12 -36 16 C-35 14 -35 14 -32.28 13.02 C-31.2 12.68 -30.12 12.35 -29 12 C-27.17 11.25 -25.34 10.48 -23.52 9.69 C-22.52 9.25 -21.52 8.82 -20.49 8.37 C-19.46 7.92 -18.43 7.46 -17.38 7 C-16.34 6.55 -15.3 6.1 -14.23 5.63 C-6.44 2.23 -6.44 2.23 -3.8 0.86 C-2 0 -2 0 0 0 Z " fill="#1EE4F3" transform="translate(397,288)"/>
<path d="M0 0 C2.42 2.58 3.88 4.63 5 8 C3.95 10.4 2.87 12.64 1.62 14.94 C-1.92 21.61 -1.92 21.61 -2.47 24.42 C-2.65 24.94 -2.82 25.46 -3 26 C-5.75 26.63 -8.15 26.23 -11 26 C-11 25.67 -11 25.34 -11 25 C-9.82 25.02 -8.65 25.04 -7.44 25.06 C-6.87 25.05 -6.87 25.05 -4 25 C-4.33 24.34 -4.66 23.68 -5 23 C-5.1 21.15 -5.13 19.29 -5.12 17.44 C-5.13 16.45 -5.13 15.45 -5.13 14.43 C-5 12 -5 12 -4 11 C-3.82 9.65 -3.68 8.29 -3.56 6.94 C-3.38 5.64 -3.19 4.34 -3 3 C-2.34 3 -1.68 3 -1 3 C-0.67 2.01 -0.34 1.02 0 0 Z " fill="#024688" transform="translate(239,240)"/>
<path d="M0 0 C0.98 1.63 0.98 1.63 2 4 C6.41 11.91 12.58 18.01 18.97 24.31 C20.7 26.02 22.42 27.74 24.14 29.46 C25.24 30.56 26.35 31.66 27.45 32.75 C27.96 33.26 28.47 33.78 29 34.31 C31.33 36.59 32.86 37.95 36 39 C36.27 39.58 36.54 40.15 36.81 40.75 C38.07 43.14 39.14 44.01 41.25 45.62 C42.16 46.41 43.06 47.19 44 48 C43.34 48.66 42.68 49.32 42 50 C40.36 48.87 40.36 48.87 38.38 46.9 C37.64 46.17 36.9 45.44 36.13 44.69 C35.33 43.88 34.53 43.07 33.7 42.23 C32.88 41.41 32.05 40.59 31.2 39.74 C29.44 37.99 27.69 36.23 25.94 34.46 C23.29 31.79 20.61 29.14 17.94 26.48 C16.23 24.78 14.53 23.07 12.83 21.36 C12.43 20.97 12.43 20.97 10.42 18.98 C5.51 13.98 0.6 8.61 -2 2 C-1.34 1.34 -0.68 0.68 0 0 Z " fill="#165EC1" transform="translate(134,328)"/>
</svg>
